<svg width="244" height="317" viewBox="0 0 244 317" fill="none" xmlns="http://www.w3.org/2000/svg">
<path fill-rule="evenodd" clip-rule="evenodd" d="M120.719 112.549C127.16 108.553 133.913 107.539 139.14 110.491C143.845 113.15 146.435 118.528 146.833 125.104C187.797 135.127 217.965 169.335 217.965 209.992C217.965 258.516 174.992 297.853 121.983 297.853C68.9729 297.853 26 258.516 26 209.992C26 174.803 48.5986 144.446 81.2356 130.418C81.4178 128.553 81.714 126.654 82.1303 124.738C85.8098 107.803 97.4844 95.9629 108.206 98.2925C114.195 99.5938 118.62 105.041 120.719 112.549Z" fill="#FC3B00"/>
<path d="M101.774 222.407C113.307 222.407 122.656 211.55 122.656 198.157L80.8918 198.157C80.8918 211.55 90.2411 222.407 101.774 222.407Z" fill="white"/>
<path d="M101.774 215.671C109.587 215.671 115.92 207.83 115.92 198.157L87.6282 198.157C87.6282 207.83 93.9616 215.671 101.774 215.671Z" fill="black"/>
<rect width="28.9658" height="12.1252" rx="6.06262" transform="matrix(1 0 0 -1 86.9546 189.399)" fill="black"/>
<path d="M142.192 222.407C130.659 222.407 121.309 211.55 121.309 198.157L163.074 198.157C163.074 211.55 153.725 222.407 142.192 222.407Z" fill="white"/>
<path d="M142.192 215.671C134.379 215.671 128.046 207.83 128.046 198.157L156.338 198.157C156.338 207.83 150.004 215.671 142.192 215.671Z" fill="black"/>
<rect x="157.011" y="189.399" width="28.9658" height="12.1252" rx="6.06262" transform="rotate(-180 157.011 189.399)" fill="black"/>
<circle cx="5.05218" cy="5.05218" r="5.05218" transform="matrix(-1 0 0 1 126.698 210.282)" fill="#FEC400"/>
<path d="M94.3644 281.013C79.4831 281.013 67.4194 293.076 67.4194 307.958H121.309C121.309 293.076 109.246 281.013 94.3644 281.013Z" fill="black"/>
<path d="M150.275 281.013C135.394 281.013 123.33 293.076 123.33 307.958H177.22C177.22 293.076 165.156 281.013 150.275 281.013Z" fill="black"/>
<path d="M71.6787 219.526L64.9733 210.665C63.7996 209.114 61.5598 208.877 60.0871 210.147L57.8141 212.109C56.4174 213.314 56.25 215.418 57.4386 216.829L60.4339 220.384L64.8263 225.367C66.0954 226.807 68.3095 226.897 69.691 225.565L71.3309 223.983C72.5581 222.8 72.7075 220.886 71.6787 219.526Z" fill="#3C77FF"/>
<path d="M38.9552 233.301L49.7107 241.58C51.1162 242.662 53.1198 242.468 54.2923 241.137L64.8642 229.138C65.9505 227.905 65.9885 226.069 64.9542 224.792L61.7723 220.864L57.5182 215.844C56.2879 214.392 54.1002 214.247 52.689 215.523L38.75 228.134C37.1922 229.543 37.2905 232.019 38.9552 233.301Z" fill="white"/>
<path d="M77.0097 288.292L56.8497 252.225C55.9269 250.574 56.5441 248.487 58.2165 247.604L73.4695 239.546C74.6898 238.901 76.1799 239.066 77.2296 239.962L105.554 264.142C107.13 265.488 107.129 267.924 105.551 269.268L82.1336 289.213C80.5172 290.59 78.0457 290.145 77.0097 288.292Z" fill="#3C77FF"/>
<circle cx="73.1452" cy="252.597" r="25.2609" fill="#E73600"/>
<circle cx="170.147" cy="252.597" r="25.2609" fill="#E73600"/>
<g filter="url(#filter0_d_181_1700)">
<rect x="7" y="7" width="230" height="54" rx="8" fill="white" shape-rendering="crispEdges"/>
<path d="M119.347 74.5766L111.816 57.1925C110.958 55.2116 112.41 53 114.569 53H129.47C131.618 53 133.07 55.1927 132.232 57.171L124.861 74.5552C123.832 76.9835 120.395 76.9969 119.347 74.5766Z" fill="white"/>
</g>
<defs>
<filter id="filter0_d_181_1700" x="0" y="0" width="244" height="83.3838" filterUnits="userSpaceOnUse" color-interpolation-filters="sRGB">
<feFlood flood-opacity="0" result="BackgroundImageFix"/>
<feColorMatrix in="SourceAlpha" type="matrix" values="0 0 0 0 0 0 0 0 0 0 0 0 0 0 0 0 0 0 127 0" result="hardAlpha"/>
<feOffset/>
<feGaussianBlur stdDeviation="3.5"/>
<feComposite in2="hardAlpha" operator="out"/>
<feColorMatrix type="matrix" values="0 0 0 0 0 0 0 0 0 0 0 0 0 0 0 0 0 0 0.05 0"/>
<feBlend mode="normal" in2="BackgroundImageFix" result="effect1_dropShadow_181_1700"/>
<feBlend mode="normal" in="SourceGraphic" in2="effect1_dropShadow_181_1700" result="shape"/>
</filter>
</defs>
</svg>
