<svg width="240" height="256" viewBox="0 0 240 256" fill="none" xmlns="http://www.w3.org/2000/svg">
<path d="M79.635 57.001C98.906 29.7235 139.645 30.5741 157.761 58.632L172.315 81.1728C182.525 96.9867 191.392 113.629 198.822 130.924L215.594 169.967C227.053 196.641 207.49 226.338 178.458 226.338H58.4324C30.1824 226.338 10.6475 198.096 20.6134 171.662L30.5665 145.262C40.6611 118.487 54.1266 93.1071 70.6377 69.7363L79.635 57.001Z" fill="#0D8C49"/>
<circle cx="101.717" cy="136.746" r="19.5351" fill="white"/>
<circle cx="106.433" cy="136.747" r="11.4516" fill="black"/>
<circle cx="19.5351" cy="19.5351" r="19.5351" transform="matrix(-1 0 0 1 158.975 117.211)" fill="white"/>
<ellipse cx="11.7884" cy="11.4516" rx="11.7884" ry="11.4516" transform="matrix(-1 0 0 1 146.177 125.295)" fill="black"/>
<circle cx="5.05218" cy="5.05218" r="5.05218" transform="matrix(-1 0 0 1 125.833 146.177)" fill="#FF55E9"/>
<path d="M92.747 220.275C77.8657 220.275 65.802 232.339 65.802 247.22H119.692C119.692 232.339 107.628 220.275 92.747 220.275Z" fill="black"/>
<path d="M148.658 220.275C133.777 220.275 121.713 232.339 121.713 247.22H175.603C175.603 232.339 163.539 220.275 148.658 220.275Z" fill="black"/>
<path d="M95.051 213.996C84.4085 222.926 83.4193 239.54 92.2854 252.374C93.3427 253.905 95.483 254.083 96.9079 252.888L133.03 222.578C134.455 221.382 134.651 219.243 133.327 217.936C122.227 206.976 105.693 205.065 95.051 213.996Z" fill="#FC3B00"/>
<rect width="13.0784" height="68.5815" rx="3.36812" transform="matrix(-0.766044 0.642788 0.642788 0.766044 53.8804 154.45)" fill="#AA6C3B"/>
<rect width="22.9032" height="12.7989" rx="3.36812" transform="matrix(-0.766044 0.642788 0.642788 0.766044 99.0603 200.958)" fill="#FC3B00"/>
<circle cx="24.2505" cy="24.2505" r="24.2505" transform="matrix(-1 0 0 1 199.393 163.69)" fill="#0F8045"/>
<circle cx="24.2505" cy="24.2505" r="24.2505" transform="matrix(-1 0 0 1 90.9392 163.69)" fill="#0F8045"/>
<rect width="28.9658" height="12.1252" rx="6.06262" transform="matrix(1 0 0 -1 86.2239 109.127)" fill="black"/>
<rect x="156.281" y="109.127" width="28.9658" height="12.1252" rx="6.06262" transform="rotate(-180 156.281 109.127)" fill="black"/>
</svg>
