<svg width="239" height="240" viewBox="0 0 239 240" fill="none" xmlns="http://www.w3.org/2000/svg">
<rect x="124.254" y="193.909" width="21.4431" height="30.8245" fill="black"/>
<rect x="96.1099" y="185.197" width="21.4431" height="39.5357" fill="black"/>
<path fill-rule="evenodd" clip-rule="evenodd" d="M163.395 53.0656C159.036 40.4317 149.085 29.8791 135.445 25.2632C112.052 17.346 86.6693 29.8922 78.7521 53.2859C78.2106 54.8859 77.7649 56.4953 77.4117 58.1077C57.5682 55.5828 38.0328 67.2662 31.3724 86.9462C25.1483 105.337 32.0981 125.009 47.1525 135.705C44.8502 139.035 42.9676 142.738 41.6051 146.764C33.7294 170.035 46.2098 195.284 69.4807 203.16C87.7043 209.327 107.141 203.011 118.497 188.806C123.902 195.361 131.141 200.54 139.781 203.464C164.494 211.828 191.31 198.574 199.674 173.86C203.759 161.788 202.687 149.215 197.64 138.536C203.257 133.18 207.697 126.424 210.357 118.563C219.136 92.6216 205.224 64.4753 179.283 55.6961C174.018 53.9141 168.662 53.067 163.395 53.0656Z" fill="#FEC400"/>
<rect x="85.0068" y="104.786" width="11.3917" height="6.03088" rx="3.01544" fill="black"/>
<rect x="85.0068" y="112.827" width="11.3917" height="6.03088" rx="3.01544" fill="black"/>
<ellipse cx="106.45" cy="116.513" rx="16.0823" ry="19.7679" fill="white"/>
<ellipse cx="109.8" cy="116.513" rx="9.38136" ry="11.7267" fill="black"/>
<rect width="11.3917" height="6.03088" rx="3.01544" transform="matrix(-1 0 0 1 158.047 104.786)" fill="black"/>
<rect width="11.3917" height="6.03088" rx="3.01544" transform="matrix(-1 0 0 1 158.047 112.827)" fill="black"/>
<ellipse cx="16.0823" cy="19.7679" rx="16.0823" ry="19.7679" transform="matrix(-1 0 0 1 152.687 96.7451)" fill="white"/>
<ellipse cx="9.38136" cy="11.7267" rx="9.38136" ry="11.7267" transform="matrix(-1 0 0 1 142.635 104.786)" fill="black"/>
<circle cx="5.02573" cy="5.02573" r="5.02573" transform="matrix(-1 0 0 1 126.553 124.889)" fill="#0D8C49"/>
<circle cx="168.099" cy="167.105" r="22.7833" fill="#F2BB00"/>
<path d="M145.697 209.322C133.114 209.322 122.914 219.523 122.914 232.106H168.48C168.48 219.523 158.28 209.322 145.697 209.322Z" fill="white"/>
<path d="M96.1097 209.322C83.5269 209.322 73.3264 219.523 73.3264 232.106H118.893C118.893 219.523 108.693 209.322 96.1097 209.322Z" fill="white"/>
<rect x="54.4558" y="144.107" width="13.0099" height="68.2224" rx="3.35049" transform="rotate(-40 54.4558 144.107)" fill="#AA6C3B"/>
<rect x="95.0867" y="224.027" width="54.8625" height="19.5327" rx="3.35049" transform="rotate(-40 95.0867 224.027)" fill="#D7A077"/>
<path d="M96.2992 185.119C96.3785 183.984 97.3833 183.14 98.5151 183.26L134.113 187.006C135.878 187.192 136.554 189.405 135.195 190.546L97.1052 222.507C95.7462 223.647 93.6841 222.596 93.8076 220.827L96.2992 185.119Z" fill="#AA6C3B"/>
<circle cx="76.9657" cy="167.105" r="22.7833" fill="#F2BB00"/>
</svg>
