<svg width="162" height="203" viewBox="0 0 162 203" fill="none" xmlns="http://www.w3.org/2000/svg">
<rect width="21.556" height="30.9867" transform="matrix(-1 0 0 1 78.1404 154.26)" fill="black"/>
<rect width="21.556" height="39.7438" transform="matrix(-1 0 0 1 106.433 145.503)" fill="black"/>
<path d="M56.5843 169.753C69.2334 169.753 79.4875 180.007 79.4875 192.656H33.6811C33.6811 180.007 43.9352 169.753 56.5843 169.753Z" fill="white"/>
<path d="M106.433 169.753C119.082 169.753 129.336 180.007 129.336 192.656H83.5295C83.5295 180.007 93.7836 169.753 106.433 169.753Z" fill="white"/>
<rect x="1.34717" width="160.323" height="154.26" rx="33.6812" fill="#3C77FE"/>
<ellipse cx="80.498" cy="63.657" rx="21.8928" ry="23.24" fill="white"/>
<ellipse cx="80.498" cy="63.6579" rx="13.1357" ry="13.8093" fill="black"/>
<circle cx="5.05218" cy="5.05218" r="5.05218" transform="matrix(-1 0 0 1 86.2239 84.877)" fill="#FEC400"/>
<path d="M72.7514 171.101C72.7514 192.865 54.7814 202.088 34.6917 202.088C14.6019 202.088 0 192.865 0 171.101C0 149.337 16.286 120.579 36.3757 120.579C56.4655 120.579 72.7514 149.337 72.7514 171.101Z" fill="#434343"/>
<path fill-rule="evenodd" clip-rule="evenodd" d="M37.2145 108.816C36.6998 109.37 36.1011 109.821 35.4204 110.149C30.7283 112.41 23.9133 107.994 20.1986 100.286C16.4839 92.5777 17.2761 84.4958 21.9682 82.2347C23.3208 81.5828 24.8499 81.4859 26.4303 81.8628C28.11 77.5962 31.0317 74.7725 34.3548 74.7725C37.6191 74.7725 40.496 77.497 42.1889 81.6375C44.6663 80.0074 47.2709 79.4696 49.5029 80.3906C54.3176 82.3772 55.5748 90.4 52.3109 98.3098C49.0471 106.22 42.4981 111.021 37.6835 109.035C37.5232 108.968 37.3668 108.896 37.2145 108.816Z" fill="#434343"/>
<circle cx="36.3756" cy="120.579" r="22.9032" fill="#2763ED"/>
<circle cx="125.294" cy="120.579" r="22.9032" fill="#2763ED"/>
</svg>
