<svg width="202" height="217" viewBox="0 0 202 217" fill="none" xmlns="http://www.w3.org/2000/svg">
<path fill-rule="evenodd" clip-rule="evenodd" d="M147.452 28.2445C136.706 11.0082 120.336 0 101.999 0C83.3288 0 66.6979 11.4115 55.9656 29.1894C48.3226 25.5499 40.4 24.1992 32.7521 25.6695C6.38478 30.7387 -6.73335 67.4199 3.45191 107.599C9.87112 132.922 24.0146 153.591 40.197 164.144C56.0618 176.822 77.306 184.573 100.652 184.573C123.999 184.573 145.245 176.821 161.111 164.141C177.291 153.586 191.432 132.92 197.851 107.6C208.037 67.4208 194.92 30.7394 168.553 25.6698C161.607 24.3344 154.436 25.3256 147.452 28.2445Z" fill="black"/>
<ellipse cx="18.8615" cy="20.5455" rx="18.8615" ry="20.5455" transform="matrix(-1 0 0 1 136.746 78.8145)" fill="white"/>
<ellipse cx="10.4412" cy="11.7884" rx="10.4412" ry="11.7884" transform="matrix(-1 0 0 1 123.273 87.5713)" fill="black"/>
<ellipse cx="82.8559" cy="99.36" rx="18.8615" ry="20.5455" fill="white"/>
<ellipse cx="87.908" cy="99.3597" rx="10.4412" ry="11.7884" fill="black"/>
<circle cx="100.315" cy="115.527" r="5.05218" fill="#FC3B00"/>
<circle cx="46.48" cy="145.503" r="24.9241" fill="#FE55E6"/>
<circle cx="153.586" cy="145.503" r="24.9241" fill="#FE55E6"/>
<rect width="21.556" height="30.9867" transform="matrix(-1 0 0 1 97.002 177.837)" fill="black"/>
<rect width="21.556" height="39.7438" transform="matrix(-1 0 0 1 125.294 169.08)" fill="black"/>
<path d="M75.4459 193.33C88.095 193.33 98.3491 203.584 98.3491 216.233H52.5427C52.5427 203.584 62.7968 193.33 75.4459 193.33Z" fill="white"/>
<path d="M125.294 193.33C137.943 193.33 148.197 203.584 148.197 216.233H102.391C102.391 203.584 112.645 193.33 125.294 193.33Z" fill="white"/>
</svg>
