<svg width="192" height="210" viewBox="0 0 192 210" fill="none" xmlns="http://www.w3.org/2000/svg">
<path fill-rule="evenodd" clip-rule="evenodd" d="M94.7186 14.5487C101.16 10.5532 107.913 9.53875 113.14 12.4915C117.845 15.1498 120.435 20.5277 120.833 27.1043C161.797 37.1273 191.965 71.3346 191.965 111.992C191.965 160.516 148.992 199.853 95.9826 199.853C42.9729 199.853 0 160.516 0 111.992C0 76.8033 22.5986 46.4462 55.2356 32.4182C55.4178 30.5532 55.714 28.654 56.1303 26.7379C59.8098 9.80294 71.4844 -2.03707 82.2062 0.292499C88.1954 1.59381 92.6204 7.04131 94.7186 14.5487Z" fill="#FC3B00"/>
<path d="M75.7741 124.407C87.3071 124.407 96.6565 113.55 96.6565 100.157L54.8918 100.157C54.8918 113.55 64.2411 124.407 75.7741 124.407Z" fill="white"/>
<path d="M75.7743 117.671C83.587 117.671 89.9204 109.83 89.9204 100.157L61.6282 100.157C61.6282 109.83 67.9616 117.671 75.7743 117.671Z" fill="black"/>
<rect width="28.9658" height="12.1252" rx="6.06262" transform="matrix(1 0 0 -1 60.9546 91.3994)" fill="black"/>
<path d="M116.192 124.407C104.659 124.407 95.3093 113.55 95.3093 100.157L137.074 100.157C137.074 113.55 127.725 124.407 116.192 124.407Z" fill="white"/>
<path d="M116.192 117.671C108.379 117.671 102.046 109.83 102.046 100.157L130.338 100.157C130.338 109.83 124.004 117.671 116.192 117.671Z" fill="black"/>
<rect x="131.011" y="91.3994" width="28.9658" height="12.1252" rx="6.06262" transform="rotate(-180 131.011 91.3994)" fill="black"/>
<circle cx="5.05218" cy="5.05218" r="5.05218" transform="matrix(-1 0 0 1 100.698 112.282)" fill="#FEC400"/>
<path d="M68.3644 183.013C53.4831 183.013 41.4194 195.076 41.4194 209.958H95.3094C95.3094 195.076 83.2457 183.013 68.3644 183.013Z" fill="black"/>
<path d="M124.275 183.013C109.394 183.013 97.3301 195.076 97.3301 209.958H151.22C151.22 195.076 139.156 183.013 124.275 183.013Z" fill="black"/>
<path d="M45.6787 121.526L38.9733 112.665C37.7996 111.114 35.5598 110.877 34.0871 112.147L31.8141 114.109C30.4174 115.314 30.25 117.418 31.4386 118.829L34.4339 122.384L38.8263 127.367C40.0954 128.807 42.3095 128.897 43.691 127.565L45.3309 125.983C46.5581 124.8 46.7075 122.886 45.6787 121.526Z" fill="#3C77FF"/>
<path d="M12.9552 135.301L23.7107 143.58C25.1162 144.662 27.1198 144.468 28.2923 143.137L38.8642 131.138C39.9505 129.905 39.9885 128.069 38.9542 126.792L35.7723 122.864L31.5182 117.844C30.2879 116.392 28.1002 116.247 26.689 117.523L12.75 130.134C11.1922 131.543 11.2905 134.019 12.9552 135.301Z" fill="white"/>
<path d="M51.0097 190.292L30.8497 154.225C29.9269 152.574 30.5441 150.487 32.2165 149.604L47.4695 141.546C48.6898 140.901 50.1799 141.066 51.2296 141.962L79.5541 166.142C81.1304 167.488 81.129 169.924 79.5512 171.268L56.1336 191.213C54.5172 192.59 52.0457 192.145 51.0097 190.292Z" fill="#3C77FF"/>
<circle cx="47.1452" cy="154.597" r="25.2609" fill="#E73600"/>
<circle cx="144.147" cy="154.597" r="25.2609" fill="#E73600"/>
</svg>
