<svg xmlns="http://www.w3.org/2000/svg" width="46" height="46" viewBox="0 0 46 46" fill="none">
  <circle cx="23" cy="23" r="23" fill="#FEC400"/>
  <rect x="9" y="18.1543" width="4.46901" height="2.36595" rx="1.18297" fill="black"/>
  <rect x="9" y="21.3091" width="4.46901" height="2.36595" rx="1.18297" fill="black"/>
  <ellipse cx="17.4123" cy="22.7551" rx="6.3092" ry="7.75505" fill="white"/>
  <ellipse cx="18.7266" cy="22.7548" rx="3.68036" ry="4.60046" fill="black"/>
  <rect width="4.46901" height="2.36595" rx="1.18297" transform="matrix(-1 0 0 1 37.6543 18.1543)" fill="black"/>
  <rect width="4.46901" height="2.36595" rx="1.18297" transform="matrix(-1 0 0 1 37.6543 21.3091)" fill="black"/>
  <ellipse cx="6.3092" cy="7.75505" rx="6.3092" ry="7.75505" transform="matrix(-1 0 0 1 35.5512 15)" fill="white"/>
  <ellipse cx="3.68036" cy="4.60046" rx="3.68036" ry="4.60046" transform="matrix(-1 0 0 1 31.6079 18.1543)" fill="black"/>
  <circle cx="1.97162" cy="1.97162" r="1.97162" transform="matrix(-1 0 0 1 25.2986 26.0415)" fill="#0D8C49"/>
</svg>