<svg xmlns="http://www.w3.org/2000/svg" width="46" height="46" viewBox="0 0 46 46" fill="none">
  <circle cx="23" cy="23" r="23" fill="#FC3B00"/>
  <path d="M15.8232 31.4756C20.1837 31.4756 23.7186 27.3706 23.7186 22.3068L7.92786 22.3068C7.92786 27.3706 11.4627 31.4756 15.8232 31.4756Z" fill="white"/>
  <path d="M15.8233 28.9287C18.7772 28.9287 21.1718 25.964 21.1718 22.3068L10.4748 22.3068C10.4748 25.964 12.8694 28.9287 15.8233 28.9287Z" fill="black"/>
  <rect width="10.9517" height="4.58442" rx="2.29221" transform="matrix(1 0 0 -1 10.2202 18.9956)" fill="black"/>
  <path d="M31.1047 31.4751C26.7442 31.4751 23.2093 27.3701 23.2093 22.3063L39.0001 22.3063C39.0001 27.3701 35.4652 31.4751 31.1047 31.4751Z" fill="white"/>
  <path d="M31.1047 28.9282C28.1508 28.9282 25.7562 25.9635 25.7562 22.3063L36.4531 22.3063C36.4531 25.9635 34.0585 28.9282 31.1047 28.9282Z" fill="black"/>
  <rect x="36.7079" y="18.9956" width="10.9517" height="4.58442" rx="2.29221" transform="rotate(-180 36.7079 18.9956)" fill="black"/>
  <circle cx="1.91017" cy="1.91017" r="1.91017" transform="matrix(-1 0 0 1 25.2468 26.8911)" fill="#FEC400"/>
</svg>