<svg width="98" height="106" viewBox="0 0 98 106" fill="none" xmlns="http://www.w3.org/2000/svg">
<g id="Group 43">
<g id="Group 14">
<path id="Union" fill-rule="evenodd" clip-rule="evenodd" d="M71.7838 13.7503C66.5522 5.35911 58.5828 0 49.6557 0C40.5666 0 32.4702 5.55545 27.2455 14.2103C23.5247 12.4385 19.6678 11.781 15.9446 12.4967C3.10828 14.9646 -3.27798 32.822 1.68048 52.3824C4.80571 64.7109 11.6917 74.7734 19.5703 79.9109C27.2936 86.0821 37.6353 89.855 48.9998 89.855C60.3654 89.855 70.7079 86.0815 78.4314 79.9093C86.309 74.7714 93.194 64.7099 96.3192 52.3827C101.278 32.8224 94.8922 14.9649 82.0559 12.4969C78.6748 11.8468 75.1834 12.3293 71.7838 13.7503Z" fill="black"/>
</g>
<g id="Group 21">
<g id="Group 20">
<g id="Group 17">
<g id="Group 15">
<ellipse id="Ellipse 35" cx="8.19846" cy="9.01831" rx="8.19846" ry="9.01831" transform="matrix(-1 0 0 1 64.741 42.96)" fill="white"/>
<ellipse id="Ellipse 36" cx="4.59114" cy="5.08305" rx="4.59114" ry="5.08305" transform="matrix(-1 0 0 1 58.8381 46.8945)" fill="black"/>
<rect id="Rectangle 5" width="10.96" height="5.80234" rx="2.90117" transform="matrix(-0.982335 0.187131 0.187131 0.982335 61.3596 32.4658)" fill="white"/>
</g>
<g id="Group 16">
<ellipse id="Ellipse 35_2" cx="41.1294" cy="51.9783" rx="8.19846" ry="9.01831" fill="white"/>
<ellipse id="Ellipse 36_2" cx="43.4249" cy="51.9776" rx="4.59114" ry="5.08305" fill="black"/>
<rect id="Rectangle 5_2" x="36.3123" y="32.4658" width="10.96" height="5.80234" rx="2.90117" transform="rotate(10.7854 36.3123 32.4658)" fill="white"/>
</g>
<circle id="Ellipse 22" cx="48.8359" cy="58.5367" r="2.45954" fill="#FC3B00"/>
</g>
<g id="Group 18">
<circle id="Ellipse 37" cx="22.6278" cy="70.8349" r="12.1337" fill="#FE55E6"/>
<circle id="Ellipse 38" cx="74.77" cy="70.8349" r="12.1337" fill="#FE55E6"/>
</g>
</g>
<g id="Group 19">
<rect id="Rectangle 5_3" width="10.494" height="15.0852" transform="matrix(-1 0 0 1 47.2232 86.5752)" fill="black"/>
<rect id="Rectangle 6" width="10.494" height="19.3484" transform="matrix(-1 0 0 1 60.9966 82.3115)" fill="black"/>
<path id="Ellipse 25" d="M36.7292 94.1172C42.8871 94.1172 47.8791 99.1092 47.8791 105.267H25.5793C25.5793 99.1092 30.5713 94.1172 36.7292 94.1172Z" fill="white"/>
<path id="Ellipse 26" d="M60.9966 94.1172C67.1546 94.1172 72.1466 99.1092 72.1466 105.267H49.8467C49.8467 99.1092 54.8387 94.1172 60.9966 94.1172Z" fill="white"/>
</g>
</g>
</g>
</svg>
