<svg width="13" height="12" viewBox="0 0 13 12" fill="none" xmlns="http://www.w3.org/2000/svg">
<rect x="1.19971" y="0.5" width="11" height="11" rx="5.5" stroke="#B9BEC9"/>
<path d="M6.04053 7.70898C6.05029 6.40039 6.45068 6 7.12451 5.58984C7.5249 5.3457 7.8374 4.95508 7.8374 4.4082C7.8374 3.74414 7.31982 3.32422 6.67529 3.32422C6.11865 3.32422 5.56201 3.65625 5.50342 4.45703H4.61475C4.66357 3.27539 5.56201 2.58203 6.67529 2.58203C7.896 2.58203 8.69678 3.37305 8.69678 4.44727C8.69678 5.20898 8.33545 5.74609 7.72998 6.11719C7.12451 6.48828 6.8999 6.85938 6.88037 7.70898V7.75781H6.04053V7.70898ZM6.48975 9.80859C6.14795 9.80859 5.85498 9.52539 5.86475 9.17383C5.85498 8.83203 6.14795 8.54883 6.48975 8.54883C6.83154 8.54883 7.11475 8.83203 7.11475 9.17383C7.11475 9.52539 6.83154 9.80859 6.48975 9.80859Z" fill="#B9BEC9"/>
</svg>
