<svg width="15" height="15" viewBox="0 0 15 15" fill="none" xmlns="http://www.w3.org/2000/svg">
<g id="vuesax/bulk/award">
<g id="award">
<path id="Vector" opacity="0.4" d="M11.2187 4.81875L11.1312 4.76875L10.2625 4.26875L8.46875 3.23125C7.91875 2.9125 7.08125 2.9125 6.53125 3.23125L4.7375 4.26875L3.86875 4.775L3.75625 4.8375C2.6375 5.5875 2.5625 5.725 2.5625 6.93125V9.8125C2.5625 11.0187 2.6375 11.1562 3.78125 11.925L6.53125 13.5125C6.80625 13.675 7.15 13.75 7.5 13.75C7.84375 13.75 8.19375 13.675 8.46875 13.5125L11.2437 11.9062C12.3625 11.1562 12.4375 11.0187 12.4375 9.8125V6.93125C12.4375 5.725 12.3625 5.5875 11.2187 4.81875Z" fill="#F7CE45"/>
<path id="Vector_2" d="M3.86877 4.775L4.73752 4.26875L6.45002 3.28125L6.53127 3.23125C7.08127 2.9125 7.91877 2.9125 8.46877 3.23125L8.55002 3.28125L10.2625 4.26875L11.1313 4.76875V3.43125C11.1313 2.025 10.3563 1.25 8.95002 1.25H6.04377C4.63752 1.25 3.86877 2.025 3.86877 3.43125V4.775Z" fill="#F7CE45"/>
<path id="Vector_3" d="M9.27503 8.3373L8.88753 8.8123C8.82503 8.88105 8.78128 9.01855 8.78753 9.1123L8.82503 9.72481C8.85003 10.0998 8.58128 10.2936 8.23128 10.1561L7.66253 9.93106C7.57503 9.89981 7.42502 9.89981 7.33752 9.93106L6.76877 10.1561C6.41877 10.2936 6.15003 10.0998 6.17503 9.72481L6.21252 9.1123C6.21877 9.01855 6.17502 8.88105 6.11252 8.8123L5.72502 8.3373C5.48127 8.0498 5.58753 7.73105 5.95003 7.6373L6.54378 7.4873C6.63753 7.4623 6.75003 7.3748 6.80002 7.29355L7.13127 6.78105C7.33752 6.4623 7.66253 6.4623 7.86878 6.78105L8.20003 7.29355C8.25003 7.3748 8.36252 7.4623 8.45627 7.4873L9.05002 7.6373C9.41252 7.73105 9.51878 8.0498 9.27503 8.3373Z" fill="#F7CE45"/>
</g>
</g>
</svg>
