<svg width="25" height="24" viewBox="0 0 25 24" fill="none" xmlns="http://www.w3.org/2000/svg">
<g id="vuesax/bulk/people">
<g id="close-circle">
<path id="Vector" opacity="0.4" d="M12.4013 22C18.1089 22 22.7358 17.5228 22.7358 12C22.7358 6.47715 18.1089 2 12.4013 2C6.69378 2 2.06689 6.47715 2.06689 12C2.06689 17.5228 6.69378 22 12.4013 22Z" fill="#B9BEC9"/>
<path id="Vector_2" d="M13.4968 12.0004L15.8737 9.70035C16.1734 9.41035 16.1734 8.93035 15.8737 8.64035C15.574 8.35035 15.078 8.35035 14.7783 8.64035L12.4013 10.9404L10.0244 8.64035C9.72472 8.35035 9.22867 8.35035 8.92897 8.64035C8.62927 8.93035 8.62927 9.41035 8.92897 9.70035L11.3059 12.0004L8.92897 14.3004C8.62927 14.5904 8.62927 15.0704 8.92897 15.3604C9.08398 15.5104 9.28034 15.5804 9.47669 15.5804C9.67305 15.5804 9.8694 15.5104 10.0244 15.3604L12.4013 13.0604L14.7783 15.3604C14.9333 15.5104 15.1296 15.5804 15.326 15.5804C15.5223 15.5804 15.7187 15.5104 15.8737 15.3604C16.1734 15.0704 16.1734 14.5904 15.8737 14.3004L13.4968 12.0004Z" fill="#B9BEC9"/>
</g>
</g>
</svg>
