<svg xmlns="http://www.w3.org/2000/svg" width="46" height="42" viewBox="0 0 46 42" fill="none">
  <g clip-path="url(#clip0_170_543)">
    <path d="M54.725 -8.73997C46.2874 -9.17822 44.536 -2.92294 44.7463 1.22289C44.7807 1.90177 45.3265 2.43388 46.0046 2.48075C54.296 3.05376 56.139 -3.23933 56.012 -7.4492C55.9908 -8.15043 55.4256 -8.70358 54.725 -8.73997Z" fill="white"/>
    <ellipse cx="28.5489" cy="24.2155" rx="30.5727" ry="28.8912" fill="#AA91E8"/>
    <path d="M49.3137 3.51215C30.9439 8.48482 14.7588 5.82911 7.74038 3.50383C7.1434 3.30605 6.95885 2.57875 7.4024 2.13292C10.3348 -0.814646 16.8295 -5.36818 25.202 -5.57163C36.1881 -5.8386 43.1738 -3.59144 49.6665 1.99851C50.2054 2.46249 50.0001 3.32634 49.3137 3.51215Z" fill="white"/>
    <ellipse cx="16.7934" cy="18.7121" rx="6.26741" ry="7.79605" fill="white"/>
    <ellipse cx="15.8763" cy="18.1011" rx="4.12732" ry="5.0445" fill="black"/>
    <ellipse cx="15.8763" cy="15.8081" rx="2.59868" ry="2.14009" fill="white"/>
    <ellipse cx="15.8763" cy="20.6997" rx="2.59868" ry="2.14009" fill="white"/>
    <path d="M19.545 18.1011C19.545 20.7242 17.8207 22.6871 15.8763 22.6871C13.9319 22.6871 12.2076 20.7242 12.2076 18.1011C12.2076 15.4781 13.9319 13.5152 15.8763 13.5152C17.8207 13.5152 19.545 15.4781 19.545 18.1011Z" stroke="black" stroke-width="0.917182"/>
    <ellipse cx="29.0228" cy="18.7121" rx="6.26741" ry="7.79605" fill="white"/>
    <ellipse cx="28.1056" cy="18.1011" rx="4.12732" ry="5.0445" fill="black"/>
    <ellipse cx="28.1056" cy="15.8081" rx="2.59868" ry="2.14009" fill="white"/>
    <ellipse cx="28.1056" cy="20.6997" rx="2.59868" ry="2.14009" fill="white"/>
    <path d="M31.7744 18.1011C31.7744 20.7242 30.0501 22.6871 28.1056 22.6871C26.1612 22.6871 24.4369 20.7242 24.4369 18.1011C24.4369 15.4781 26.1612 13.5152 28.1056 13.5152C30.0501 13.5152 31.7744 15.4781 31.7744 18.1011Z" stroke="black" stroke-width="0.917182"/>
  </g>
  <defs>
    <clipPath id="clip0_170_543">
      <rect width="45.1698" height="42" rx="21" fill="white"/>
    </clipPath>
  </defs>
</svg>