<svg xmlns="http://www.w3.org/2000/svg" width="277" height="185" viewBox="0 0 277 185" fill="none">
  <path d="M219.348 18.954C201.969 13.0001 194.234 25.0359 191.925 34.0802C191.5 35.7456 192.44 37.4387 194.056 38.0237C211.05 44.1759 218.998 32.1226 221.525 22.9942C221.998 21.2847 221.026 19.5289 219.348 18.954Z" fill="#EDEDED"/>
  <path d="M206.52 0.752874C185.394 3.64298 183.999 19.9779 186.475 30.158C186.88 31.825 188.484 32.8871 190.187 32.6837C211.015 30.1966 212.619 13.7248 210.32 3.34668C209.937 1.61801 208.275 0.512896 206.52 0.752874Z" fill="white"/>
  <path fill-rule="evenodd" clip-rule="evenodd" d="M243.064 67.6946C245.333 64.5876 246.623 60.8751 246.555 56.906C246.371 46.2518 236.464 37.7834 224.428 37.9913C212.391 38.1992 202.783 47.0046 202.967 57.6587C203.087 64.6267 207.367 70.6598 213.68 73.9422C210.319 78.039 208.345 83.2625 208.443 88.9214C208.665 101.795 219.523 112.047 232.695 111.82C245.867 111.592 256.365 100.971 256.142 88.0976C255.988 79.1517 250.697 71.4719 243.064 67.6946Z" fill="#8B64ED"/>
  <ellipse cx="157.151" cy="94.8003" rx="77.1598" ry="72.916" transform="rotate(-10.7629 157.151 94.8003)" fill="#AA91E8"/>
  <path d="M198.878 33.6812C155.675 54.6683 114.294 55.7119 95.7966 53.2544C94.2232 53.0454 93.4229 51.3291 94.3125 50.0146C100.194 41.3243 114.151 26.9732 134.814 22.5228C161.927 16.683 180.307 18.9622 199.039 29.762C200.594 30.6583 200.492 32.897 198.878 33.6812Z" fill="white"/>
  <path d="M138.216 152.2C123.145 155.065 113.25 169.605 116.115 184.677L170.693 174.302C167.828 159.231 153.288 149.336 138.216 152.2Z" fill="black"/>
  <path d="M195.068 141.394C179.997 144.259 170.102 158.799 172.967 173.87L227.544 163.495C224.68 148.424 210.14 138.529 195.068 141.394Z" fill="black"/>
  <ellipse cx="125.411" cy="86.696" rx="15.8178" ry="19.6757" transform="rotate(-10.7629 125.411 86.696)" fill="white"/>
  <ellipse cx="122.849" cy="85.6124" rx="10.4166" ry="12.7314" transform="rotate(-10.7629 122.849 85.6124)" fill="black"/>
  <ellipse cx="121.768" cy="79.9271" rx="6.55858" ry="5.40119" transform="rotate(-10.7629 121.768 79.9271)" fill="white"/>
  <ellipse cx="124.073" cy="92.0555" rx="6.55858" ry="5.40119" transform="rotate(-10.7629 124.073 92.0555)" fill="white"/>
  <path d="M131.945 83.8833C133.181 90.387 129.831 96.0664 125.01 96.9828C120.189 97.8992 114.989 93.8452 113.752 87.3416C112.516 80.8379 115.866 75.1585 120.687 74.2421C125.508 73.3257 130.709 77.3797 131.945 83.8833Z" stroke="black" stroke-width="2.31479"/>
  <ellipse cx="155.733" cy="80.9324" rx="15.8178" ry="19.6757" transform="rotate(-10.7629 155.733 80.9324)" fill="white"/>
  <ellipse cx="153.17" cy="79.8488" rx="10.4166" ry="12.7314" transform="rotate(-10.7629 153.17 79.8488)" fill="black"/>
  <ellipse cx="152.09" cy="74.1634" rx="6.55858" ry="5.40119" transform="rotate(-10.7629 152.09 74.1634)" fill="white"/>
  <ellipse cx="154.395" cy="86.2918" rx="6.55858" ry="5.40119" transform="rotate(-10.7629 154.395 86.2918)" fill="white"/>
  <path d="M162.267 78.1197C163.503 84.6233 160.153 90.3027 155.332 91.2191C150.511 92.1356 145.31 88.0815 144.074 81.5779C142.838 75.0742 146.188 69.3948 151.009 68.4784C155.83 67.562 161.03 71.616 162.267 78.1197Z" stroke="black" stroke-width="2.31479"/>
  <path d="M59.5711 64.765C59.8702 62.5634 62.7981 62.0068 63.8842 63.9451L67.2943 70.0309C67.5498 70.4867 67.9519 70.8428 68.4354 71.041L75.4332 73.9108C76.9817 74.5458 77.3652 76.5636 76.1578 77.7225L70.701 82.9598C70.324 83.3216 70.0805 83.8004 70.0102 84.3182L69.0709 91.2307C68.7717 93.4323 65.8439 93.9889 64.7578 92.0506L61.3476 85.9648C61.0922 85.509 60.69 85.1529 60.2065 84.9547L53.2087 82.0849C51.6602 81.4499 51.2767 79.4321 52.4842 78.2731L57.9409 73.0359C58.3179 72.6741 58.5614 72.1953 58.6318 71.6775L59.5711 64.765Z" fill="#E0D4FE"/>
  <path d="M52.6292 94.3597C52.9284 92.1581 55.8562 91.6015 56.9423 93.5398L60.3525 99.6256C60.6079 100.081 61.0101 100.437 61.4935 100.636L68.4913 103.506C70.0398 104.141 70.4234 106.158 69.2159 107.317L63.7591 112.555C63.3821 112.916 63.1387 113.395 63.0683 113.913L62.129 120.825C61.8298 123.027 58.902 123.584 57.8159 121.645L54.4058 115.56C54.1503 115.104 53.7481 114.748 53.2647 114.549L46.2669 111.68C44.7184 111.045 44.3348 109.027 45.5423 107.868L50.9991 102.631C51.3761 102.269 51.6195 101.79 51.6899 101.272L52.6292 94.3597Z" fill="#E0D4FE"/>
  <circle cx="101.806" cy="130.062" r="20.8331" transform="rotate(-10.7629 101.806 130.062)" fill="#9C7AF0"/>
  <circle cx="196.559" cy="112.05" r="20.8331" transform="rotate(-10.7629 196.559 112.05)" fill="#9C7AF0"/>
</svg>