<svg width="337" height="260" viewBox="0 0 337 260" fill="none" xmlns="http://www.w3.org/2000/svg">
<path d="M113.922 3.45312C115.969 3.46875 117.422 5.34375 117.438 8.29688C117.422 11.25 115.969 13.125 113.922 13.125C111.859 13.125 110.422 11.25 110.422 8.29688C110.422 5.34375 111.859 3.46875 113.922 3.45312ZM113.922 4.54688C112.547 4.5625 111.578 6.03125 111.578 8.29688C111.578 10.5625 112.547 12.0312 113.922 12.0312C115.312 12.0312 116.25 10.5625 116.25 8.29688C116.25 6.03125 115.312 4.5625 113.922 4.54688ZM120.953 2.375V7.92188H123.281V8.98438H120.953V16.2656H119.734V2.375H120.953ZM128.531 4.95312C128.531 6.82812 130.016 8.53125 132.094 9.20312L131.469 10.1562C129.852 9.60938 128.562 8.46094 127.938 6.98438C127.328 8.57031 126.023 9.82031 124.375 10.4219L123.734 9.46875C125.812 8.73438 127.297 6.92188 127.297 4.95312V4.35938H124.047V3.35938H131.734V4.35938H128.531V4.95312ZM135 2.375V10.7812H133.781V2.375H135ZM135 11.5156V16.2656H133.781V12.5312H125.656V11.5156H135ZM151.234 2.375V5.39062H153.328V6.42188H151.234V9.45312H150.016V2.375H151.234ZM151.234 10.1094V13.5H143.609V15.0938H151.75V16.0781H142.406V12.5625H150.016V11.0938H142.375V10.1094H151.234ZM144.25 2.89062C146.344 2.90625 147.859 4.15625 147.859 5.96875C147.859 7.79688 146.344 9.0625 144.25 9.0625C142.172 9.0625 140.625 7.79688 140.641 5.96875C140.625 4.15625 142.172 2.90625 144.25 2.89062ZM144.25 3.92188C142.859 3.90625 141.828 4.76562 141.844 5.96875C141.828 7.1875 142.859 8.0625 144.25 8.0625C145.641 8.0625 146.656 7.1875 146.656 5.96875C146.656 4.76562 145.641 3.90625 144.25 3.92188ZM165.172 2.39062V10.625H163.953V2.39062H165.172ZM160.75 3.23438V7H155.625V8.92188C158.109 8.9375 159.969 8.85938 162.219 8.48438L162.359 9.51562C160.031 9.875 158.125 9.95312 155.562 9.95312H154.438V6.03125H159.531V4.21875H154.406V3.23438H160.75ZM165.172 11.375V16.0781H156.141V11.375H165.172ZM157.344 12.375V15.0781H163.969V12.375H157.344ZM178.484 2.375V16.2969H177.25V2.375H178.484ZM171.094 3.45312C173.156 3.46875 174.641 5.34375 174.641 8.29688C174.641 11.25 173.156 13.125 171.094 13.125C169.016 13.125 167.547 11.25 167.547 8.29688C167.547 5.34375 169.016 3.46875 171.094 3.45312ZM171.094 4.54688C169.703 4.5625 168.734 6.03125 168.734 8.29688C168.734 10.5625 169.703 12.0312 171.094 12.0312C172.484 12.0312 173.453 10.5625 173.453 8.29688C173.453 6.03125 172.484 4.5625 171.094 4.54688ZM186.641 10.5312V12.2656H189.172V10.5312H190.312V16.0781H185.484V10.5312H186.641ZM186.641 15.1094H189.172V13.2031H186.641V15.1094ZM194.281 11.625C194.266 13.0938 195.141 14.625 196.844 15.25L196.203 16.1875C194.922 15.6719 194.078 14.6953 193.656 13.5312C193.211 14.6719 192.367 15.6562 191.141 16.1875L190.5 15.25C192.172 14.5625 193.062 13.0312 193.062 11.625V10.4375H194.281V11.625ZM187.703 3C189.562 3 190.984 4.05469 191.25 5.65625H194.156V2.375H195.391V9.73438H194.156V6.67188H191.266C191.016 8.3125 189.586 9.39062 187.703 9.39062C185.594 9.39062 184.094 8.09375 184.094 6.1875C184.094 4.29688 185.594 3 187.703 3ZM187.703 4.03125C186.281 4.03125 185.266 4.92188 185.266 6.1875C185.266 7.46875 186.281 8.375 187.703 8.375C189.109 8.375 190.109 7.46875 190.109 6.1875C190.109 4.92188 189.109 4.03125 187.703 4.03125ZM200.938 3.45312C202.828 3.46875 204.188 5.08594 204.391 7.6875H207.5V2.375H208.719V16.2969H207.5V8.70312H204.406C204.258 11.4219 202.875 13.125 200.938 13.125C198.891 13.125 197.453 11.25 197.453 8.29688C197.453 5.34375 198.891 3.46875 200.938 3.45312ZM200.938 4.54688C199.562 4.5625 198.625 6.03125 198.625 8.29688C198.625 10.5625 199.562 12.0312 200.938 12.0312C202.297 12.0312 203.25 10.5625 203.25 8.29688C203.25 6.03125 202.297 4.5625 200.938 4.54688ZM223.25 13.4531V14.4844H210.531V13.4531H213.688V9.70312C212.5 9.08594 211.781 8.08594 211.781 6.82812C211.781 4.67188 213.891 3.26562 216.859 3.25C219.828 3.26562 221.938 4.67188 221.938 6.82812C221.938 8.0625 221.242 9.05469 220.094 9.67188V13.4531H223.25ZM216.859 4.26562C214.578 4.25 212.969 5.28125 212.969 6.82812C212.969 8.375 214.578 9.42188 216.859 9.42188C219.125 9.42188 220.75 8.375 220.75 6.82812C220.75 5.28125 219.125 4.25 216.859 4.26562ZM214.891 13.4531H218.859V10.1406C218.258 10.3047 217.586 10.3906 216.859 10.3906C216.148 10.3906 215.484 10.3125 214.891 10.1562V13.4531ZM225.328 15.0938C224.781 15.0938 224.312 14.6406 224.328 14.0781C224.312 13.5312 224.781 13.0781 225.328 13.0781C225.875 13.0781 226.328 13.5312 226.328 14.0781C226.328 14.6406 225.875 15.0938 225.328 15.0938Z" fill="#787878"/>
<path d="M240.69 80.4548C223.382 74.2656 215.483 86.205 213.053 95.2225C212.606 96.8821 213.523 98.5876 215.132 99.1942C232.052 105.577 240.164 93.6225 242.813 84.5237C243.309 82.8207 242.361 81.052 240.69 80.4548Z" fill="#E0E0E0"/>
<path d="M228.1 62.0748C206.924 64.6842 205.312 81.0089 207.653 91.2261C208.037 92.8984 209.626 93.9817 211.332 93.801C232.204 91.5909 234.027 75.132 231.864 64.719C231.504 62.9854 229.857 61.8583 228.1 62.0748Z" fill="white"/>
<path fill-rule="evenodd" clip-rule="evenodd" d="M263.765 129.531C266.076 126.452 267.416 122.756 267.4 118.784C267.358 108.123 257.561 99.5195 245.517 99.5671C233.473 99.6147 223.744 108.296 223.786 118.956C223.813 125.929 228.014 132.021 234.286 135.389C230.869 139.443 228.825 144.642 228.847 150.305C228.898 163.186 239.624 173.587 252.804 173.535C265.984 173.483 276.627 162.998 276.576 150.116C276.541 141.164 271.351 133.411 263.765 129.531Z" fill="#8B64ED"/>
<ellipse cx="177.457" cy="155.502" rx="77.1972" ry="72.9514" transform="rotate(-10 177.457 155.502)" fill="#AA91E8"/>
<path d="M220.016 94.914C176.515 115.335 135.101 115.828 116.63 113.122C115.059 112.892 114.282 111.166 115.189 109.863C121.188 101.248 135.342 87.0758 156.073 82.8986C183.276 77.4175 201.633 79.9428 220.23 90.9972C221.773 91.9142 221.641 94.1514 220.016 94.914Z" fill="white"/>
<path d="M157.75 212.673C142.635 215.338 132.542 229.752 135.207 244.867L189.945 235.216C187.28 220.1 172.866 210.007 157.75 212.673Z" fill="black"/>
<path d="M214.769 202.619C199.653 205.284 189.56 219.698 192.226 234.814L246.963 225.162C244.298 210.047 229.884 199.954 214.769 202.619Z" fill="black"/>
<ellipse cx="145.812" cy="146.972" rx="15.8254" ry="19.6853" transform="rotate(-10 145.812 146.972)" fill="white"/>
<ellipse cx="143.263" cy="145.853" rx="10.4216" ry="12.7375" transform="rotate(-10 143.263 145.853)" fill="black"/>
<ellipse cx="142.258" cy="140.152" rx="6.56177" ry="5.40381" transform="rotate(-10 142.258 140.152)" fill="white"/>
<ellipse cx="144.403" cy="152.316" rx="6.56177" ry="5.40381" transform="rotate(-10 144.403 152.316)" fill="white"/>
<path d="M152.387 144.245C153.537 150.768 150.11 156.405 145.274 157.258C140.438 158.11 135.29 153.985 134.14 147.462C132.989 140.939 136.417 135.302 141.252 134.449C146.088 133.597 151.236 137.722 152.387 144.245Z" stroke="black" stroke-width="2.31479"/>
<ellipse cx="176.223" cy="141.61" rx="15.8254" ry="19.6853" transform="rotate(-10 176.223 141.61)" fill="white"/>
<ellipse cx="173.674" cy="140.492" rx="10.4216" ry="12.7375" transform="rotate(-10 173.674 140.492)" fill="black"/>
<ellipse cx="172.668" cy="134.79" rx="6.56177" ry="5.40381" transform="rotate(-10 172.668 134.79)" fill="white"/>
<ellipse cx="174.813" cy="146.954" rx="6.56177" ry="5.40381" transform="rotate(-10 174.813 146.954)" fill="white"/>
<path d="M182.797 138.883C183.947 145.406 180.52 151.043 175.685 151.896C170.849 152.749 165.7 148.623 164.55 142.1C163.4 135.577 166.827 129.94 171.663 129.087C176.498 128.235 181.647 132.36 182.797 138.883Z" stroke="black" stroke-width="2.31479"/>
<path d="M80.2385 124.152C80.567 121.954 83.5019 121.437 84.5622 123.389L87.8944 129.526C88.1437 129.985 88.5411 130.347 89.0219 130.552L95.9862 133.516C97.5261 134.172 97.8828 136.195 96.66 137.338L91.1297 142.506C90.7479 142.862 90.4981 143.338 90.4209 143.855L89.3885 150.761C89.0601 152.959 86.1251 153.476 85.0649 151.524L81.7327 145.387C81.4833 144.927 81.086 144.566 80.6052 144.361L73.6409 141.396C72.101 140.741 71.7443 138.718 72.9671 137.575L78.4973 132.407C78.8791 132.05 79.129 131.575 79.2062 131.058L80.2385 124.152Z" fill="#E0D4FE"/>
<path d="M72.8999 153.666C73.2284 151.468 76.1633 150.951 77.2235 152.903L80.5558 159.04C80.8051 159.5 81.2025 159.861 81.6833 160.066L88.6476 163.031C90.1875 163.686 90.5441 165.709 89.3213 166.852L83.7911 172.02C83.4093 172.377 83.1595 172.852 83.0822 173.369L82.0499 180.275C81.7215 182.473 78.7865 182.99 77.7263 181.038L74.3941 174.901C74.1447 174.442 73.7473 174.08 73.2665 173.876L66.3022 170.911C64.7623 170.255 64.4057 168.232 65.6285 167.09L71.1587 161.921C71.5405 161.565 71.7903 161.089 71.8676 160.572L72.8999 153.666Z" fill="#E0D4FE"/>
<circle cx="108.194" cy="199.287" r="27.7042" transform="rotate(-10 108.194 199.287)" fill="#9C7AF0"/>
<circle cx="234.774" cy="176.968" r="27.7042" transform="rotate(-10 234.774 176.968)" fill="#9C7AF0"/>
</svg>
