<svg width="40" height="40" viewBox="0 0 40 40" fill="none" xmlns="http://www.w3.org/2000/svg">
<rect x="0.15" y="0.15" width="39.7" height="39.7" rx="10.85" fill="#E5E6EA" stroke="#E5E6EA" stroke-width="0.3"/>
<path opacity="0.4" d="M28.96 23.4176L27.8172 21.5204C27.5772 21.0976 27.36 20.2976 27.36 19.829V16.9376C27.36 13.2119 24.3314 10.1719 20.5943 10.1719C16.8572 10.1719 13.8286 13.2119 13.8286 16.9376V19.829C13.8286 20.2976 13.6114 21.0976 13.3714 21.509L12.2171 23.4176C11.76 24.1833 11.6571 25.029 11.9429 25.8062C12.2171 26.5719 12.8686 27.1662 13.7143 27.4519C15.9314 28.2062 18.2629 28.5719 20.5943 28.5719C22.9257 28.5719 25.2572 28.2062 27.4743 27.4633C28.2743 27.2004 28.8914 26.5947 29.1886 25.8062C29.4857 25.0176 29.4057 24.149 28.96 23.4176Z" fill="#788399"/>
<path d="M23.1429 10.6521C22.3543 10.3436 21.4971 10.1721 20.5943 10.1721C19.7029 10.1721 18.8457 10.3321 18.0571 10.6521C18.5486 9.72641 19.52 9.14355 20.5943 9.14355C21.68 9.14355 22.64 9.72641 23.1429 10.6521Z" fill="#788399"/>
<path d="M23.8057 29.7263C23.3257 31.052 22.0571 32.0006 20.5714 32.0006C19.6686 32.0006 18.7771 31.6348 18.1486 30.9834C17.7829 30.6406 17.5086 30.1834 17.3486 29.7148C17.4971 29.7377 17.6457 29.7491 17.8057 29.772C18.0686 29.8063 18.3429 29.8406 18.6171 29.8634C19.2686 29.9206 19.9314 29.9548 20.5943 29.9548C21.2457 29.9548 21.8971 29.9206 22.5371 29.8634C22.7771 29.8406 23.0171 29.8291 23.2457 29.7948C23.4286 29.772 23.6114 29.7491 23.8057 29.7263Z" fill="#788399"/>
</svg>
