<svg width="353" height="260" viewBox="0 0 353 260" fill="none" xmlns="http://www.w3.org/2000/svg">
<path d="M100.172 3.45312C102.219 3.46875 103.672 5.34375 103.688 8.29688C103.672 11.25 102.219 13.125 100.172 13.125C98.1094 13.125 96.6719 11.25 96.6719 8.29688C96.6719 5.34375 98.1094 3.46875 100.172 3.45312ZM100.172 4.54688C98.7969 4.5625 97.8281 6.03125 97.8281 8.29688C97.8281 10.5625 98.7969 12.0312 100.172 12.0312C101.562 12.0312 102.5 10.5625 102.5 8.29688C102.5 6.03125 101.562 4.5625 100.172 4.54688ZM107.203 2.375V7.92188H109.531V8.98438H107.203V16.2656H105.984V2.375H107.203ZM114.781 4.95312C114.781 6.82812 116.266 8.53125 118.344 9.20312L117.719 10.1562C116.102 9.60938 114.812 8.46094 114.188 6.98438C113.578 8.57031 112.273 9.82031 110.625 10.4219L109.984 9.46875C112.062 8.73438 113.547 6.92188 113.547 4.95312V4.35938H110.297V3.35938H117.984V4.35938H114.781V4.95312ZM121.25 2.375V10.7812H120.031V2.375H121.25ZM121.25 11.5156V16.2656H120.031V12.5312H111.906V11.5156H121.25ZM131.625 4.67188C131.625 6.48438 133.141 8.09375 135.203 8.71875L134.578 9.6875C132.953 9.17188 131.648 8.05469 131.016 6.625C130.406 8.15625 129.094 9.35156 127.438 9.92188L126.797 8.95312C128.891 8.29688 130.391 6.57812 130.391 4.67188V4.3125H127.141V3.3125H134.828V4.3125H131.625V4.67188ZM138.094 2.375V9.89062H136.875V2.375H138.094ZM130.312 10.5781V12.2656H136.875V10.5781H138.094V16.0781H129.094V10.5781H130.312ZM130.312 15.0781H136.875V13.25H130.312V15.0781ZM150.812 2.375V6.60938H152.906V7.64062H150.812V12.625H149.594V2.375H150.812ZM151.453 14.9375V15.9688H142.125V11.5625H143.328V14.9375H151.453ZM143.859 3.35938C145.938 3.35938 147.5 4.76562 147.516 6.78125C147.5 8.79688 145.938 10.2031 143.859 10.2031C141.781 10.2031 140.203 8.79688 140.219 6.78125C140.203 4.76562 141.781 3.35938 143.859 3.35938ZM143.859 4.4375C142.484 4.4375 141.406 5.40625 141.422 6.78125C141.406 8.15625 142.484 9.125 143.859 9.125C145.266 9.125 146.312 8.15625 146.312 6.78125C146.312 5.40625 145.266 4.4375 143.859 4.4375ZM157.219 2.89062C159.297 2.90625 160.812 4.15625 160.812 5.96875C160.812 7.78125 159.297 9.03125 157.219 9.03125C155.109 9.03125 153.609 7.78125 153.609 5.96875C153.609 4.15625 155.109 2.90625 157.219 2.89062ZM157.219 3.92188C155.828 3.92188 154.797 4.76562 154.812 5.96875C154.797 7.1875 155.828 8.03125 157.219 8.03125C158.594 8.03125 159.625 7.1875 159.625 5.96875C159.625 4.76562 158.594 3.92188 157.219 3.92188ZM164.75 2.375V9.51562H163.531V2.375H164.75ZM164.75 10.1875V13.5312H156.953V15.0938H165.25V16.0781H155.75V12.6094H163.531V11.1719H155.719V10.1875H164.75ZM181.609 2.375V16.2656H180.375V2.375H181.609ZM177.5 3.89062C177.484 7.89062 175.625 11.4219 170.969 13.6562L170.297 12.6562C174.055 10.875 175.969 8.21094 176.25 4.89062H170.938V3.89062H177.5ZM196.156 10.0312V11.0469H183.438V10.0312H189.188V8.5625H185.094V5.17188H193.281V3.73438H185.047V2.73438H194.516V6.09375H186.312V7.57812H194.812V8.5625H190.391V10.0312H196.156ZM194.594 12.1094V16.1406H193.359V13.1094H184.859V12.1094H194.594ZM208.234 2.375V16.2969H207V2.375H208.234ZM200.844 3.45312C202.906 3.46875 204.391 5.34375 204.391 8.29688C204.391 11.25 202.906 13.125 200.844 13.125C198.766 13.125 197.297 11.25 197.297 8.29688C197.297 5.34375 198.766 3.46875 200.844 3.45312ZM200.844 4.54688C199.453 4.5625 198.484 6.03125 198.484 8.29688C198.484 10.5625 199.453 12.0312 200.844 12.0312C202.234 12.0312 203.203 10.5625 203.203 8.29688C203.203 6.03125 202.234 4.5625 200.844 4.54688ZM216.391 10.5312V12.2656H218.922V10.5312H220.062V16.0781H215.234V10.5312H216.391ZM216.391 15.1094H218.922V13.2031H216.391V15.1094ZM224.031 11.625C224.016 13.0938 224.891 14.625 226.594 15.25L225.953 16.1875C224.672 15.6719 223.828 14.6953 223.406 13.5312C222.961 14.6719 222.117 15.6562 220.891 16.1875L220.25 15.25C221.922 14.5625 222.812 13.0312 222.812 11.625V10.4375H224.031V11.625ZM217.453 3C219.312 3 220.734 4.05469 221 5.65625H223.906V2.375H225.141V9.73438H223.906V6.67188H221.016C220.766 8.3125 219.336 9.39062 217.453 9.39062C215.344 9.39062 213.844 8.09375 213.844 6.1875C213.844 4.29688 215.344 3 217.453 3ZM217.453 4.03125C216.031 4.03125 215.016 4.92188 215.016 6.1875C215.016 7.46875 216.031 8.375 217.453 8.375C218.859 8.375 219.859 7.46875 219.859 6.1875C219.859 4.92188 218.859 4.03125 217.453 4.03125ZM230.688 3.45312C232.578 3.46875 233.938 5.08594 234.141 7.6875H237.25V2.375H238.469V16.2969H237.25V8.70312H234.156C234.008 11.4219 232.625 13.125 230.688 13.125C228.641 13.125 227.203 11.25 227.203 8.29688C227.203 5.34375 228.641 3.46875 230.688 3.45312ZM230.688 4.54688C229.312 4.5625 228.375 6.03125 228.375 8.29688C228.375 10.5625 229.312 12.0312 230.688 12.0312C232.047 12.0312 233 10.5625 233 8.29688C233 6.03125 232.047 4.5625 230.688 4.54688ZM253 13.4531V14.4844H240.281V13.4531H243.438V9.70312C242.25 9.08594 241.531 8.08594 241.531 6.82812C241.531 4.67188 243.641 3.26562 246.609 3.25C249.578 3.26562 251.688 4.67188 251.688 6.82812C251.688 8.0625 250.992 9.05469 249.844 9.67188V13.4531H253ZM246.609 4.26562C244.328 4.25 242.719 5.28125 242.719 6.82812C242.719 8.375 244.328 9.42188 246.609 9.42188C248.875 9.42188 250.5 8.375 250.5 6.82812C250.5 5.28125 248.875 4.25 246.609 4.26562ZM244.641 13.4531H248.609V10.1406C248.008 10.3047 247.336 10.3906 246.609 10.3906C245.898 10.3906 245.234 10.3125 244.641 10.1562V13.4531ZM255.078 15.0938C254.531 15.0938 254.062 14.6406 254.078 14.0781C254.062 13.5312 254.531 13.0781 255.078 13.0781C255.625 13.0781 256.078 13.5312 256.078 14.0781C256.078 14.6406 255.625 15.0938 255.078 15.0938Z" fill="#787878"/>
<path d="M248.69 80.4549C231.382 74.2657 223.483 86.2051 221.053 95.2226C220.606 96.8822 221.523 98.5877 223.132 99.1943C240.052 105.577 248.164 93.6226 250.813 84.5238C251.309 82.8208 250.361 81.0521 248.69 80.4549Z" fill="#E0E0E0"/>
<path d="M236.1 62.075C214.924 64.6844 213.312 81.009 215.653 91.2263C216.037 92.8985 217.626 93.9819 219.332 93.8012C240.204 91.5911 242.027 75.1322 239.864 64.7192C239.504 62.9856 237.857 61.8584 236.1 62.075Z" fill="white"/>
<path fill-rule="evenodd" clip-rule="evenodd" d="M271.765 129.53C274.076 126.452 275.416 122.755 275.401 118.784C275.358 108.123 265.561 99.5193 253.517 99.5669C241.473 99.6145 231.744 108.295 231.786 118.956C231.813 125.929 236.014 132.021 242.286 135.389C238.869 139.443 236.825 144.642 236.847 150.304C236.898 163.186 247.624 173.587 260.804 173.535C273.984 173.482 284.627 162.997 284.577 150.116C284.541 141.164 279.351 133.411 271.765 129.53Z" fill="#8B64ED"/>
<ellipse cx="185.457" cy="155.502" rx="77.1972" ry="72.9514" transform="rotate(-10 185.457 155.502)" fill="#AA91E8"/>
<path d="M228.016 94.9138C184.515 115.335 143.102 115.827 124.63 113.122C123.06 112.892 122.282 111.165 123.189 109.863C129.188 101.248 143.342 87.0756 164.074 82.8984C191.276 77.4173 209.633 79.9426 228.23 90.997C229.773 91.914 229.641 94.1512 228.016 94.9138Z" fill="white"/>
<path d="M165.75 212.673C150.635 215.338 140.542 229.752 143.207 244.867L197.945 235.216C195.28 220.1 180.866 210.007 165.75 212.673Z" fill="black"/>
<path d="M222.768 202.619C207.653 205.284 197.56 219.698 200.226 234.814L254.963 225.162C252.298 210.046 237.884 199.954 222.768 202.619Z" fill="black"/>
<ellipse cx="153.812" cy="146.972" rx="15.8254" ry="19.6853" transform="rotate(-10 153.812 146.972)" fill="white"/>
<ellipse cx="151.263" cy="145.854" rx="10.4216" ry="12.7375" transform="rotate(-10 151.263 145.854)" fill="black"/>
<ellipse cx="150.258" cy="140.152" rx="6.56177" ry="5.40381" transform="rotate(-10 150.258 140.152)" fill="white"/>
<ellipse cx="152.403" cy="152.316" rx="6.56177" ry="5.40381" transform="rotate(-10 152.403 152.316)" fill="white"/>
<path d="M160.387 144.245C161.537 150.768 158.11 156.405 153.274 157.258C148.439 158.111 143.29 153.985 142.14 147.462C140.99 140.939 144.417 135.302 149.252 134.449C154.088 133.597 159.237 137.722 160.387 144.245Z" stroke="black" stroke-width="2.31479"/>
<ellipse cx="184.223" cy="141.61" rx="15.8254" ry="19.6853" transform="rotate(-10 184.223 141.61)" fill="white"/>
<ellipse cx="181.674" cy="140.491" rx="10.4216" ry="12.7375" transform="rotate(-10 181.674 140.491)" fill="black"/>
<ellipse cx="180.668" cy="134.789" rx="6.56177" ry="5.40381" transform="rotate(-10 180.668 134.789)" fill="white"/>
<ellipse cx="182.813" cy="146.953" rx="6.56177" ry="5.40381" transform="rotate(-10 182.813 146.953)" fill="white"/>
<path d="M190.797 138.883C191.947 145.406 188.52 151.043 183.685 151.896C178.849 152.748 173.7 148.623 172.55 142.1C171.4 135.577 174.827 129.94 179.663 129.087C184.498 128.235 189.647 132.36 190.797 138.883Z" stroke="black" stroke-width="2.31479"/>
<path d="M88.2387 124.152C88.5671 121.954 91.5021 121.437 92.5623 123.389L95.8945 129.526C96.1438 129.985 96.5412 130.347 97.022 130.551L103.986 133.516C105.526 134.172 105.883 136.195 104.66 137.337L99.1299 142.506C98.7481 142.862 98.4982 143.338 98.421 143.855L97.3887 150.761C97.0602 152.959 94.1253 153.476 93.065 151.523L89.7328 145.387C89.4835 144.927 89.0861 144.566 88.6053 144.361L81.641 141.396C80.1011 140.741 79.7444 138.718 80.9672 137.575L86.4975 132.407C86.8793 132.05 87.1291 131.575 87.2063 131.058L88.2387 124.152Z" fill="#E0D4FE"/>
<path d="M80.9 153.666C81.2285 151.468 84.1634 150.951 85.2237 152.903L88.5559 159.04C88.8052 159.499 89.2026 159.861 89.6834 160.066L96.6477 163.03C98.1876 163.686 98.5443 165.709 97.3215 166.852L91.7912 172.02C91.4094 172.376 91.1596 172.852 91.0824 173.369L90.05 180.275C89.7216 182.473 86.7866 182.99 85.7264 181.038L82.3942 174.901C82.1448 174.441 81.7475 174.08 81.2667 173.875L74.3024 170.91C72.7625 170.255 72.4058 168.232 73.6286 167.089L79.1588 161.921C79.5406 161.565 79.7905 161.089 79.8677 160.572L80.9 153.666Z" fill="#E0D4FE"/>
<circle cx="116.194" cy="199.287" r="27.7042" transform="rotate(-10 116.194 199.287)" fill="#9C7AF0"/>
<circle cx="242.774" cy="176.968" r="27.7042" transform="rotate(-10 242.774 176.968)" fill="#9C7AF0"/>
</svg>
