<svg width="26" height="24" viewBox="0 0 26 24" fill="none" xmlns="http://www.w3.org/2000/svg">
<g id="vuesax/bulk/people">
<g id="people">
<path id="Vector" opacity="0.4" d="M18.3508 7.77C18.2775 7.76 18.2043 7.76 18.131 7.77C16.5084 7.72 15.2208 6.45 15.2208 4.89C15.2208 3.3 16.5712 2 18.2461 2C19.9106 2 21.2714 3.29 21.2714 4.89C21.261 6.45 19.9734 7.72 18.3508 7.77Z" fill="#B9BEC9"/>
<path id="Vector_2" opacity="0.4" d="M21.7634 14.7004C20.591 15.4504 18.9475 15.7304 17.4296 15.5404C17.8274 14.7204 18.0368 13.8104 18.0472 12.8504C18.0472 11.8504 17.8169 10.9004 17.3773 10.0704C18.9266 9.8704 20.5701 10.1504 21.753 10.9004C23.407 11.9404 23.407 13.6504 21.7634 14.7004Z" fill="#B9BEC9"/>
<path id="Vector_3" opacity="0.4" d="M6.74154 7.77C6.81482 7.76 6.8881 7.76 6.96138 7.77C8.58395 7.72 9.87154 6.45 9.87154 4.89C9.87154 3.3 8.52114 2 6.84622 2C5.18178 2 3.82091 3.29 3.82091 4.89C3.83138 6.45 5.11896 7.72 6.74154 7.77Z" fill="#B9BEC9"/>
<path id="Vector_4" opacity="0.4" d="M6.85669 12.8496C6.85669 13.8196 7.07652 14.7396 7.47431 15.5696C5.99829 15.7196 4.45946 15.4196 3.32889 14.7096C1.67491 13.6596 1.67491 11.9496 3.32889 10.8996C4.44899 10.1796 6.0297 9.88962 7.51619 10.0496C7.08699 10.8896 6.85669 11.8396 6.85669 12.8496Z" fill="#B9BEC9"/>
<path id="Vector_5" d="M12.6875 15.87C12.6037 15.86 12.5095 15.86 12.4153 15.87C10.4892 15.81 8.95033 14.3 8.95033 12.44C8.95033 10.54 10.552 9 12.5514 9C14.5404 9 16.1525 10.54 16.1525 12.44C16.1525 14.3 14.6241 15.81 12.6875 15.87Z" fill="#B9BEC9"/>
<path id="Vector_6" d="M9.28532 17.9396C7.70462 18.9496 7.70462 20.6096 9.28532 21.6096C11.0859 22.7596 14.0379 22.7596 15.8384 21.6096C17.4191 20.5996 17.4191 18.9396 15.8384 17.9396C14.0484 16.7896 11.0963 16.7896 9.28532 17.9396Z" fill="#B9BEC9"/>
</g>
</g>
</svg>
