<svg width="25" height="24" viewBox="0 0 25 24" fill="none" xmlns="http://www.w3.org/2000/svg">
<g id="vuesax/bulk/ranking">
<g id="ranking">
<path id="Vector" opacity="0.4" d="M8.92278 14H4.11663C2.98456 14 2.05832 14.9 2.05832 16V22H8.92278V14Z" fill="#B9BEC9"/>
<path id="Vector_2" d="M13.7186 9.99902H10.9708C9.83871 9.99902 8.91248 10.899 8.91248 11.999V21.999H15.7769V11.999C15.7769 10.899 14.861 9.99902 13.7186 9.99902Z" fill="#B9BEC9"/>
<path id="Vector_3" opacity="0.4" d="M20.5831 17.001H15.777V22.001H22.6414V19.001C22.6414 17.901 21.7152 17.001 20.5831 17.001Z" fill="#B9BEC9"/>
<path id="Vector_4" d="M15.4476 4.8495C15.7666 4.5395 15.8901 4.1695 15.7872 3.8495C15.6843 3.5295 15.3653 3.29951 14.9124 3.22951L13.9245 3.06951C13.8833 3.05951 13.7907 2.99949 13.7701 2.95949L13.2246 1.89949C12.813 1.08949 11.8764 1.08949 11.4648 1.89949L10.9193 2.95949C10.8987 2.99949 10.8061 3.05951 10.765 3.06951L9.77697 3.22951C9.32414 3.29951 9.01539 3.5295 8.90219 3.8495C8.79927 4.1695 8.92277 4.5395 9.2418 4.8495L10.0034 5.5995C10.0343 5.6295 10.0754 5.74951 10.0651 5.78951L9.84901 6.70949C9.68434 7.38949 9.95192 7.69948 10.1269 7.82948C10.3018 7.94948 10.6826 8.1095 11.3104 7.7495L12.2366 7.2195C12.2778 7.1895 12.4116 7.1895 12.4528 7.2195L13.379 7.7495C13.6672 7.9195 13.9039 7.9695 14.0891 7.9695C14.3052 7.9695 14.4596 7.88948 14.5522 7.82948C14.7272 7.70949 14.9948 7.39949 14.8301 6.70949L14.614 5.78951C14.6037 5.73951 14.6346 5.6295 14.6757 5.5995L15.4476 4.8495Z" fill="#B9BEC9"/>
</g>
</g>
</svg>
