<svg width="550" height="332" viewBox="0 0 550 332" fill="none" xmlns="http://www.w3.org/2000/svg">
<path d="M478.693 61.6406C430.9 31.2379 402.772 65.6754 393.514 89.3296C392.887 90.9302 393.515 92.7555 394.949 93.7033C441.424 124.422 470.28 89.9117 480.158 66.1231C480.838 64.4849 480.19 62.5927 478.693 61.6406Z" fill="#EDEDED"/>
<path d="M454.949 5.60508C390.652 -0.429931 380.421 48.5832 383.524 76.7502C383.712 78.4554 385.111 79.7889 386.816 79.9787C449.938 87.0061 460.868 37.5338 458.317 8.9176C458.159 7.15402 456.712 5.77054 454.949 5.60508Z" fill="white"/>
<path fill-rule="evenodd" clip-rule="evenodd" d="M512.1 197.914C519.556 190.937 524.761 181.896 526.55 171.512C531.351 143.639 509.716 116.646 478.227 111.222C446.738 105.798 417.318 123.996 412.517 151.869C409.377 170.099 417.544 187.952 432.381 199.641C421.585 208.657 413.849 221.3 411.299 236.105C405.498 269.785 428.73 301.9 463.19 307.836C497.65 313.771 530.288 291.28 536.09 257.6C540.121 234.196 530.133 211.548 512.1 197.914Z" fill="#8B64ED"/>
<ellipse cx="274.636" cy="226.011" rx="204.806" ry="193.542" fill="#AA91E8"/>
<path d="M420.217 85.5208C289.819 122.583 174.809 101.688 130.167 85.5056C128.675 84.9648 128.223 83.1412 129.287 81.963C146.733 62.6379 192.296 27.9219 252.215 26.4658C328.661 24.6081 376.192 40.9223 421.143 81.6297C422.473 82.8344 421.943 85.0301 420.217 85.5208Z" fill="white"/>
<ellipse cx="195.887" cy="189.145" rx="41.9853" ry="52.2256" fill="white"/>
<ellipse cx="189.742" cy="185.049" rx="27.6489" ry="33.7931" fill="black"/>
<ellipse cx="189.743" cy="169.688" rx="17.4085" ry="14.3364" fill="white"/>
<ellipse cx="189.743" cy="202.457" rx="17.4085" ry="14.3364" fill="white"/>
<path d="M215.391 185.049C215.391 203.002 203.551 216.842 189.742 216.842C175.934 216.842 164.094 203.002 164.094 185.049C164.094 167.096 175.934 153.256 189.742 153.256C203.551 153.256 215.391 167.096 215.391 185.049Z" stroke="black" stroke-width="4"/>
<ellipse cx="277.811" cy="189.145" rx="41.9853" ry="52.2256" fill="white"/>
<ellipse cx="271.667" cy="185.049" rx="27.6489" ry="33.7931" fill="black"/>
<ellipse cx="271.667" cy="169.688" rx="17.4085" ry="14.3364" fill="white"/>
<ellipse cx="271.667" cy="202.457" rx="17.4085" ry="14.3364" fill="white"/>
<path d="M297.316 185.049C297.316 203.002 285.476 216.842 271.667 216.842C257.858 216.842 246.018 203.002 246.018 185.049C246.018 167.096 257.858 153.256 271.667 153.256C285.476 153.256 297.316 167.096 297.316 185.049Z" stroke="black" stroke-width="4"/>
<circle cx="73.5" cy="308.5" r="73.5" fill="#9C7AF0"/>
<circle cx="414.5" cy="308.5" r="73.5" fill="#9C7AF0"/>
</svg>
