<svg width="316" height="160" viewBox="0 0 316 160" fill="none" xmlns="http://www.w3.org/2000/svg">
<g filter="url(#filter0_d_262_4271)">
<rect x="7" y="7" width="302" height="120" rx="11" fill="white" shape-rendering="crispEdges"/>
<path d="M126.486 48.5117H129.104V49.8008H126.486V56.0312H124.963V43.2188H126.486V48.5117ZM127.287 60.2109H115.627V54.7031H117.131V58.9219H127.287V60.2109ZM117.795 44.4492C118.654 44.4492 119.429 44.6315 120.119 44.9961C120.816 45.3607 121.363 45.8685 121.76 46.5195C122.157 47.1641 122.359 47.8997 122.365 48.7266C122.359 49.5534 122.157 50.2923 121.76 50.9434C121.363 51.5879 120.816 52.0924 120.119 52.457C119.429 52.8216 118.654 53.0039 117.795 53.0039C116.936 53.0039 116.158 52.8216 115.461 52.457C114.771 52.0924 114.227 51.5879 113.83 50.9434C113.433 50.2923 113.238 49.5534 113.244 48.7266C113.238 47.8997 113.433 47.1641 113.83 46.5195C114.227 45.8685 114.771 45.3607 115.461 44.9961C116.158 44.6315 116.936 44.4492 117.795 44.4492ZM117.795 45.7969C117.229 45.7969 116.711 45.9238 116.242 46.1777C115.773 46.4251 115.406 46.7734 115.139 47.2227C114.872 47.6654 114.742 48.1667 114.748 48.7266C114.742 49.2865 114.872 49.791 115.139 50.2402C115.406 50.6829 115.773 51.0312 116.242 51.2852C116.711 51.5326 117.229 51.6562 117.795 51.6562C118.374 51.6562 118.895 51.5326 119.357 51.2852C119.826 51.0312 120.194 50.6829 120.461 50.2402C120.728 49.7975 120.861 49.293 120.861 48.7266C120.861 48.1602 120.728 47.6556 120.461 47.2129C120.194 46.7702 119.826 46.4251 119.357 46.1777C118.895 45.9238 118.374 45.7969 117.795 45.7969ZM132.795 51.4023C134.331 51.4089 135.663 51.3665 136.789 51.2754C137.922 51.1842 139.064 51.0182 140.217 50.7773L140.412 52.0469C139.253 52.2878 138.107 52.457 136.975 52.5547C135.848 52.6458 134.546 52.6914 133.068 52.6914H132.561H131.232V44.293H132.795V51.4023ZM144.592 53.8828H143.049V49.5859H138.068V48.375H143.049V46.5195H138.068V45.2891H143.049V43.2188H144.592V53.8828ZM138.83 54.0195C140.028 54.0195 141.063 54.153 141.936 54.4199C142.814 54.6803 143.485 55.0579 143.947 55.5527C144.416 56.0475 144.65 56.6367 144.65 57.3203C144.65 57.9974 144.416 58.5801 143.947 59.0684C143.485 59.5566 142.818 59.9277 141.945 60.1816C141.073 60.4421 140.035 60.5755 138.83 60.582C137.626 60.5755 136.587 60.4421 135.715 60.1816C134.842 59.9277 134.172 59.5566 133.703 59.0684C133.241 58.5801 133.01 57.9974 133.01 57.3203C133.01 56.6367 133.241 56.0475 133.703 55.5527C134.172 55.0579 134.842 54.6803 135.715 54.4199C136.594 54.153 137.632 54.0195 138.83 54.0195ZM138.83 55.25C137.951 55.25 137.186 55.3346 136.535 55.5039C135.884 55.6667 135.386 55.9043 135.041 56.2168C134.696 56.5293 134.527 56.8971 134.533 57.3203C134.527 57.7305 134.696 58.0885 135.041 58.3945C135.386 58.694 135.884 58.9251 136.535 59.0879C137.186 59.2507 137.951 59.332 138.83 59.332C139.709 59.332 140.471 59.2507 141.115 59.0879C141.766 58.9251 142.264 58.694 142.609 58.3945C142.954 58.0885 143.127 57.7305 143.127 57.3203C143.127 56.8971 142.954 56.5293 142.609 56.2168C142.264 55.9043 141.766 55.6667 141.115 55.5039C140.471 55.3346 139.709 55.25 138.83 55.25ZM160.92 50.3867H163.83V51.6562H160.92V60.582H159.396V43.2188H160.92V50.3867ZM157.717 47.2812H147.385V46.0117H151.857V43.4336H153.381V46.0117H157.717V47.2812ZM152.639 48.7266C153.452 48.7266 154.182 48.8958 154.826 49.2344C155.471 49.5729 155.975 50.0449 156.34 50.6504C156.704 51.2559 156.89 51.9427 156.896 52.7109C156.89 53.4792 156.704 54.166 156.34 54.7715C155.975 55.377 155.471 55.849 154.826 56.1875C154.182 56.526 153.452 56.6953 152.639 56.6953C151.818 56.6953 151.083 56.526 150.432 56.1875C149.787 55.849 149.283 55.377 148.918 54.7715C148.553 54.166 148.374 53.4792 148.381 52.7109C148.374 51.9427 148.553 51.2559 148.918 50.6504C149.283 50.0449 149.787 49.5729 150.432 49.2344C151.083 48.8958 151.818 48.7266 152.639 48.7266ZM152.639 50.0156C152.105 50.0156 151.623 50.1328 151.193 50.3672C150.77 50.5951 150.438 50.9141 150.197 51.3242C149.956 51.7344 149.839 52.1966 149.846 52.7109C149.839 53.2318 149.956 53.6973 150.197 54.1074C150.438 54.5111 150.77 54.8268 151.193 55.0547C151.623 55.2826 152.105 55.3932 152.639 55.3867C153.166 55.3932 153.641 55.2826 154.064 55.0547C154.488 54.8268 154.82 54.5111 155.061 54.1074C155.301 53.6973 155.425 53.2318 155.432 52.7109C155.425 52.1966 155.301 51.7344 155.061 51.3242C154.82 50.9141 154.488 50.5951 154.064 50.3672C153.641 50.1328 153.166 50.0156 152.639 50.0156ZM169.924 48.1602C169.924 49.0846 170.07 50.0091 170.363 50.9336C170.656 51.8581 171.076 52.7012 171.623 53.4629C172.176 54.2246 172.827 54.8268 173.576 55.2695L172.697 56.4609C171.883 55.9661 171.177 55.2858 170.578 54.4199C169.986 53.5475 169.53 52.5677 169.211 51.4805C168.885 52.6523 168.407 53.707 167.775 54.6445C167.144 55.582 166.402 56.3112 165.549 56.832L164.572 55.6797C165.354 55.224 166.037 54.6022 166.623 53.8145C167.209 53.0202 167.658 52.138 167.971 51.168C168.283 50.1914 168.439 49.2083 168.439 48.2188V44.8594H169.924V48.1602ZM179.65 60.582H178.166V43.2188H179.65V60.582ZM176.057 59.7031H174.611V50.7578H171.662V49.4492H174.611V43.5898H176.057V59.7031ZM197.951 58.3555H182.053V57.0664H185.998V52.3789C185.243 51.9883 184.657 51.487 184.24 50.875C183.824 50.2565 183.615 49.5599 183.615 48.7852C183.615 47.8997 183.885 47.1217 184.426 46.4512C184.966 45.7741 185.715 45.25 186.672 44.8789C187.635 44.5078 188.732 44.319 189.963 44.3125C191.193 44.319 192.287 44.5078 193.244 44.8789C194.208 45.25 194.96 45.7741 195.5 46.4512C196.04 47.1217 196.311 47.8997 196.311 48.7852C196.311 49.5469 196.109 50.2337 195.705 50.8457C195.301 51.4512 194.735 51.9492 194.006 52.3398V57.0664H197.951V58.3555ZM189.963 45.582C189.019 45.5755 188.179 45.7057 187.443 45.9727C186.708 46.2396 186.132 46.6172 185.715 47.1055C185.305 47.5872 185.1 48.1471 185.1 48.7852C185.1 49.4232 185.305 49.9896 185.715 50.4844C186.132 50.9727 186.708 51.3535 187.443 51.627C188.179 51.8939 189.019 52.0273 189.963 52.0273C190.9 52.0273 191.737 51.8906 192.473 51.6172C193.208 51.3438 193.785 50.9629 194.201 50.4746C194.618 49.9863 194.826 49.4232 194.826 48.7852C194.826 48.1471 194.618 47.5872 194.201 47.1055C193.785 46.6172 193.208 46.2396 192.473 45.9727C191.737 45.7057 190.9 45.5755 189.963 45.582ZM192.463 57.0664V52.9355C191.688 53.1374 190.855 53.2383 189.963 53.2383C189.064 53.2383 188.244 53.1406 187.502 52.9453V57.0664H192.463ZM200.666 63.0039H199.221L200.295 57.6914H202.189L200.666 63.0039ZM65.1973 90.6211H63.6543V80.8164H59.8457V79.5469H63.6543V73.2188H65.1973V90.6211ZM56.8184 78.375C56.8184 79.319 57.0234 80.276 57.4336 81.2461C57.8503 82.2096 58.4102 83.0755 59.1133 83.8438C59.8164 84.612 60.5879 85.1849 61.4277 85.5625L60.5098 86.793C59.5267 86.3112 58.638 85.582 57.8438 84.6055C57.056 83.6224 56.4635 82.5221 56.0664 81.3047C55.6693 82.5872 55.0703 83.7526 54.2695 84.8008C53.4688 85.8424 52.5736 86.6237 51.584 87.1445L50.6465 85.9531C51.4798 85.543 52.248 84.9375 52.9512 84.1367C53.6608 83.3294 54.224 82.4212 54.6406 81.4121C55.0573 80.3965 55.2689 79.3841 55.2754 78.375V76.2852H51.3105V75.0156H60.8027V76.2852H56.8184V78.375ZM82.1309 79.7227H70.2363V73.8633H71.7598V78.4922H82.1309V79.7227ZM83.9668 83.3359H68.0684V82.0859H83.9668V83.3359ZM82.2285 90.1523H70.1387V85.1133H71.6621V88.8828H82.2285V90.1523ZM90.041 89L95.2168 74.8594H97.0723L102.248 89H100.393L98.9766 85.0156H93.293L91.877 89H90.041ZM98.4395 83.4727L96.1934 77.1445H96.0762L93.8301 83.4727H98.4395ZM105.92 89H104.162V74.8594H105.92V89ZM119.123 76.9492C119.123 77.6589 119.312 78.3392 119.689 78.9902C120.074 79.6348 120.601 80.2044 121.271 80.6992C121.942 81.1875 122.704 81.5586 123.557 81.8125L122.814 83.0039C121.805 82.7044 120.917 82.2389 120.148 81.6074C119.38 80.9759 118.801 80.2337 118.41 79.3809C118.033 80.3314 117.46 81.1647 116.691 81.8809C115.93 82.5905 115.035 83.1146 114.006 83.4531L113.264 82.2812C114.11 81.9948 114.862 81.5846 115.52 81.0508C116.184 80.5104 116.698 79.8854 117.062 79.1758C117.434 78.4661 117.619 77.724 117.619 76.9492V76.5781H113.693V75.3477H117.619V73.1406H119.162V75.3477H123.049V76.5781H119.123V76.9492ZM127.6 83.7461H126.057V79.4688H122.502V78.1992H126.057V73.2188H127.6V83.7461ZM121.838 84.2148C123.042 84.2148 124.081 84.3385 124.953 84.5859C125.826 84.8333 126.493 85.1947 126.955 85.6699C127.424 86.1387 127.658 86.7083 127.658 87.3789C127.658 88.043 127.424 88.6126 126.955 89.0879C126.493 89.5632 125.826 89.9245 124.953 90.1719C124.081 90.4193 123.042 90.543 121.838 90.543C120.633 90.543 119.595 90.4193 118.723 90.1719C117.85 89.9245 117.18 89.5632 116.711 89.0879C116.249 88.6126 116.018 88.043 116.018 87.3789C116.018 86.7083 116.249 86.1387 116.711 85.6699C117.18 85.1947 117.85 84.8333 118.723 84.5859C119.595 84.3385 120.633 84.2148 121.838 84.2148ZM121.838 85.4062C120.952 85.4128 120.184 85.4941 119.533 85.6504C118.889 85.8066 118.394 86.0345 118.049 86.334C117.704 86.627 117.535 86.9753 117.541 87.3789C117.535 87.776 117.704 88.1243 118.049 88.4238C118.4 88.7168 118.898 88.9414 119.543 89.0977C120.194 89.2539 120.959 89.332 121.838 89.332C122.723 89.332 123.488 89.2539 124.133 89.0977C124.777 88.9414 125.272 88.7168 125.617 88.4238C125.962 88.1309 126.135 87.7826 126.135 87.3789C126.135 86.9753 125.962 86.627 125.617 86.334C125.279 86.0345 124.787 85.8066 124.143 85.6504C123.498 85.4941 122.73 85.4128 121.838 85.4062ZM146.389 88.3164H130.49V87.0469H137.6V82.7891H139.104V87.0469H146.389V88.3164ZM139.143 75.7383C139.143 76.6628 139.462 77.5514 140.1 78.4043C140.744 79.2572 141.564 79.9798 142.561 80.5723C143.563 81.1582 144.579 81.5391 145.607 81.7148L144.924 82.9844C144.025 82.8021 143.143 82.4863 142.277 82.0371C141.411 81.5879 140.63 81.028 139.934 80.3574C139.243 79.6868 138.716 78.9479 138.352 78.1406C137.987 78.9479 137.46 79.6868 136.77 80.3574C136.079 81.028 135.301 81.5879 134.436 82.0371C133.576 82.4863 132.697 82.8021 131.799 82.9844L131.115 81.7148C132.144 81.5391 133.153 81.1582 134.143 80.5723C135.139 79.9798 135.952 79.2604 136.584 78.4141C137.222 77.5612 137.541 76.6693 137.541 75.7383V74.4102H139.143V75.7383ZM168.693 88.3555H152.795V87.0664H156.74V82.3789C155.985 81.9883 155.399 81.487 154.982 80.875C154.566 80.2565 154.357 79.5599 154.357 78.7852C154.357 77.8997 154.628 77.1217 155.168 76.4512C155.708 75.7741 156.457 75.25 157.414 74.8789C158.378 74.5078 159.475 74.319 160.705 74.3125C161.936 74.319 163.029 74.5078 163.986 74.8789C164.95 75.25 165.702 75.7741 166.242 76.4512C166.783 77.1217 167.053 77.8997 167.053 78.7852C167.053 79.5469 166.851 80.2337 166.447 80.8457C166.044 81.4512 165.477 81.9492 164.748 82.3398V87.0664H168.693V88.3555ZM160.705 75.582C159.761 75.5755 158.921 75.7057 158.186 75.9727C157.45 76.2396 156.874 76.6172 156.457 77.1055C156.047 77.5872 155.842 78.1471 155.842 78.7852C155.842 79.4232 156.047 79.9896 156.457 80.4844C156.874 80.9727 157.45 81.3535 158.186 81.627C158.921 81.8939 159.761 82.0273 160.705 82.0273C161.643 82.0273 162.479 81.8906 163.215 81.6172C163.951 81.3438 164.527 80.9629 164.943 80.4746C165.36 79.9863 165.568 79.4232 165.568 78.7852C165.568 78.1471 165.36 77.5872 164.943 77.1055C164.527 76.6172 163.951 76.2396 163.215 75.9727C162.479 75.7057 161.643 75.5755 160.705 75.582ZM163.205 87.0664V82.9355C162.43 83.1374 161.597 83.2383 160.705 83.2383C159.807 83.2383 158.986 83.1406 158.244 82.9453V87.0664H163.205ZM184.475 83.5703H182.932V79.0195H179.436V77.75H182.932V73.2188H184.475V83.5703ZM178.713 84.1172C179.917 84.1172 180.956 84.2441 181.828 84.498C182.701 84.752 183.368 85.1198 183.83 85.6016C184.299 86.0833 184.533 86.6628 184.533 87.3398C184.533 88.0169 184.299 88.5964 183.83 89.0781C183.368 89.5664 182.701 89.9375 181.828 90.1914C180.956 90.4453 179.917 90.5755 178.713 90.582C177.508 90.5755 176.47 90.4453 175.598 90.1914C174.725 89.9375 174.055 89.5664 173.586 89.0781C173.124 88.5964 172.893 88.0169 172.893 87.3398C172.893 86.6628 173.124 86.0833 173.586 85.6016C174.055 85.1198 174.725 84.752 175.598 84.498C176.47 84.2441 177.508 84.1172 178.713 84.1172ZM178.713 85.3086C177.834 85.3086 177.069 85.39 176.418 85.5527C175.767 85.7155 175.269 85.9499 174.924 86.2559C174.579 86.5618 174.41 86.9232 174.416 87.3398C174.41 87.75 174.579 88.1081 174.924 88.4141C175.269 88.7135 175.767 88.9447 176.418 89.1074C177.069 89.2702 177.834 89.3516 178.713 89.3516C179.592 89.3516 180.354 89.2702 180.998 89.1074C181.649 88.9447 182.147 88.7135 182.492 88.4141C182.837 88.1081 183.01 87.75 183.01 87.3398C183.01 86.9232 182.837 86.5618 182.492 86.2559C182.147 85.9499 181.649 85.7155 180.998 85.5527C180.354 85.39 179.592 85.3086 178.713 85.3086ZM176.115 76.4023C176.115 77.151 176.294 77.877 176.652 78.5801C177.01 79.2767 177.512 79.8984 178.156 80.4453C178.807 80.9857 179.553 81.4023 180.393 81.6953L179.592 82.9258C178.622 82.5742 177.769 82.0534 177.033 81.3633C176.304 80.6732 175.754 79.8757 175.383 78.9707C175.005 79.9863 174.429 80.8848 173.654 81.666C172.886 82.4408 171.988 83.0234 170.959 83.4141L170.158 82.1836C171.011 81.8711 171.773 81.4219 172.443 80.8359C173.114 80.2435 173.635 79.5632 174.006 78.7949C174.383 78.0267 174.572 77.2357 174.572 76.4219V75.7773H170.646V74.4883H180.002V75.7773H176.115V76.4023ZM241.838 90.582H240.354V73.2188H241.838V90.582ZM238.381 89.7031H236.916V84H234.143C233.837 84.8724 233.404 85.5495 232.844 86.0312C232.284 86.513 231.636 86.7539 230.9 86.7539C230.152 86.7539 229.494 86.5098 228.928 86.0215C228.368 85.5267 227.935 84.8236 227.629 83.9121C227.323 83.0007 227.17 81.9362 227.17 80.7188C227.17 79.5013 227.323 78.4368 227.629 77.5254C227.935 76.6139 228.368 75.9141 228.928 75.4258C229.494 74.931 230.152 74.6836 230.9 74.6836C231.636 74.6836 232.284 74.9245 232.844 75.4062C233.404 75.888 233.837 76.5651 234.143 77.4375H236.916V73.5898H238.381V89.7031ZM230.9 76.1289C230.432 76.1289 230.021 76.3145 229.67 76.6855C229.325 77.0566 229.058 77.5872 228.869 78.2773C228.687 78.9674 228.596 79.7812 228.596 80.7188C228.596 81.6497 228.687 82.4603 228.869 83.1504C229.058 83.8405 229.325 84.3711 229.67 84.7422C230.021 85.1133 230.432 85.2956 230.9 85.2891C231.363 85.2956 231.77 85.1133 232.121 84.7422C232.473 84.3711 232.743 83.8405 232.932 83.1504C233.127 82.4603 233.225 81.6497 233.225 80.7188C233.225 79.7878 233.127 78.9772 232.932 78.2871C232.743 77.5905 232.473 77.0566 232.121 76.6855C231.776 76.3145 231.369 76.1289 230.9 76.1289ZM234.475 78.707C234.592 79.319 234.65 79.9896 234.65 80.7188C234.65 81.4219 234.595 82.0859 234.484 82.7109H236.916V78.707H234.475ZM260.139 88.3555H244.24V87.0664H248.186V82.3789C247.43 81.9883 246.844 81.487 246.428 80.875C246.011 80.2565 245.803 79.5599 245.803 78.7852C245.803 77.8997 246.073 77.1217 246.613 76.4512C247.154 75.7741 247.902 75.25 248.859 74.8789C249.823 74.5078 250.92 74.319 252.15 74.3125C253.381 74.319 254.475 74.5078 255.432 74.8789C256.395 75.25 257.147 75.7741 257.688 76.4512C258.228 77.1217 258.498 77.8997 258.498 78.7852C258.498 79.5469 258.296 80.2337 257.893 80.8457C257.489 81.4512 256.923 81.9492 256.193 82.3398V87.0664H260.139V88.3555ZM252.15 75.582C251.206 75.5755 250.367 75.7057 249.631 75.9727C248.895 76.2396 248.319 76.6172 247.902 77.1055C247.492 77.5872 247.287 78.1471 247.287 78.7852C247.287 79.4232 247.492 79.9896 247.902 80.4844C248.319 80.9727 248.895 81.3535 249.631 81.627C250.367 81.8939 251.206 82.0273 252.15 82.0273C253.088 82.0273 253.924 81.8906 254.66 81.6172C255.396 81.3438 255.972 80.9629 256.389 80.4746C256.805 79.9863 257.014 79.4232 257.014 78.7852C257.014 78.1471 256.805 77.5872 256.389 77.1055C255.972 76.6172 255.396 76.2396 254.66 75.9727C253.924 75.7057 253.088 75.5755 252.15 75.582ZM254.65 87.0664V82.9355C253.876 83.1374 253.042 83.2383 252.15 83.2383C251.252 83.2383 250.432 83.1406 249.689 82.9453V87.0664H254.65ZM263.361 89.1172C263.133 89.1172 262.922 89.0618 262.727 88.9512C262.538 88.834 262.385 88.6777 262.268 88.4824C262.157 88.2871 262.105 88.0755 262.111 87.8477C262.105 87.6263 262.157 87.4212 262.268 87.2324C262.385 87.0371 262.538 86.8841 262.727 86.7734C262.922 86.6562 263.133 86.5977 263.361 86.5977C263.583 86.5977 263.788 86.6562 263.977 86.7734C264.172 86.8841 264.325 87.0371 264.436 87.2324C264.553 87.4212 264.611 87.6263 264.611 87.8477C264.611 88.0755 264.553 88.2871 264.436 88.4824C264.325 88.6777 264.172 88.834 263.977 88.9512C263.788 89.0618 263.583 89.1172 263.361 89.1172Z" fill="black"/>
<path d="M207.814 90.7188H205.725V81.6953H204.064V89.918H202.033V73.4141H204.064V79.9375H205.725V73.0625H207.814V90.7188ZM196.643 75.1914C196.643 76.6953 196.564 78.0853 196.408 79.3613C196.252 80.6374 195.962 81.8841 195.539 83.1016C195.122 84.3125 194.54 85.4518 193.791 86.5195L192.092 85.5234C193.003 84.2865 193.661 82.9811 194.064 81.6074C194.475 80.2272 194.719 78.668 194.797 76.9297H192.639V75.1914H196.643ZM200.822 75.1914C200.822 76.832 200.754 78.3424 200.617 79.7227C200.48 81.1029 200.201 82.4733 199.777 83.834C199.361 85.1947 198.758 86.4544 197.971 87.6133L196.252 86.6758C196.923 85.7383 197.447 84.7487 197.824 83.707C198.208 82.6589 198.479 81.5911 198.635 80.5039C198.798 79.4102 198.895 78.2188 198.928 76.9297H197.189V75.1914H200.822ZM224.24 90.7578H222.053V73.082H224.24V90.7578ZM212.658 78.9414H216.936V74.5273H219.084V86.5977H210.49V74.5273H212.658V78.9414ZM216.936 84.8203V80.6406H212.658V84.8203H216.936Z" fill="#AA91E8"/>
<path d="M154.042 149.653L138.929 121.356C137.15 118.025 139.563 114 143.339 114H173.244C177.001 114 179.416 117.987 177.676 121.316L162.884 149.614C161.022 153.174 155.935 153.197 154.042 149.653Z" fill="white"/>
</g>
<defs>
<filter id="filter0_d_262_4271" x="0" y="0" width="316" height="159.298" filterUnits="userSpaceOnUse" color-interpolation-filters="sRGB">
<feFlood flood-opacity="0" result="BackgroundImageFix"/>
<feColorMatrix in="SourceAlpha" type="matrix" values="0 0 0 0 0 0 0 0 0 0 0 0 0 0 0 0 0 0 127 0" result="hardAlpha"/>
<feOffset/>
<feGaussianBlur stdDeviation="3.5"/>
<feComposite in2="hardAlpha" operator="out"/>
<feColorMatrix type="matrix" values="0 0 0 0 0 0 0 0 0 0 0 0 0 0 0 0 0 0 0.05 0"/>
<feBlend mode="normal" in2="BackgroundImageFix" result="effect1_dropShadow_262_4271"/>
<feBlend mode="normal" in="SourceGraphic" in2="effect1_dropShadow_262_4271" result="shape"/>
</filter>
</defs>
</svg>
