<svg width="316" height="180" viewBox="0 0 316 180" fill="none" xmlns="http://www.w3.org/2000/svg">
<g filter="url(#filter0_d_263_2298)">
<rect x="7" y="7" width="302" height="138" rx="11" fill="white" shape-rendering="crispEdges"/>
<path d="M111.049 42.5508C111.049 43.5078 111.26 44.4616 111.684 45.4121C112.107 46.3561 112.676 47.1992 113.393 47.9414C114.115 48.6771 114.903 49.2305 115.756 49.6016L114.896 50.8125C113.874 50.3438 112.953 49.6374 112.133 48.6934C111.312 47.7428 110.701 46.6719 110.297 45.4805C109.893 46.7565 109.281 47.9121 108.461 48.9473C107.647 49.9759 106.745 50.7409 105.756 51.2422L104.838 50.0312C105.658 49.6341 106.423 49.0352 107.133 48.2344C107.849 47.4336 108.422 46.5319 108.852 45.5293C109.281 44.5202 109.499 43.5273 109.506 42.5508V40.2852H105.404V39.0156H115.189V40.2852H111.049V42.5508ZM119.154 54.582H117.611V37.2188H119.154V54.582ZM135.932 39.4453C135.932 40.3828 135.906 41.2292 135.854 41.9844C135.801 42.7331 135.674 43.5859 135.473 44.543H138.021V45.8125H122.123V44.543H133.93C134.138 43.5794 134.268 42.7233 134.32 41.9746C134.379 41.2259 134.408 40.3828 134.408 39.4453V39.4258H124.135V38.1562H135.932V39.4453ZM136.01 54.3477H124.076V48.2148H136.01V54.3477ZM125.6 53.0977H134.486V49.4258H125.6V53.0977ZM155.287 48.7812H148.041V54.582H146.537V48.7812H139.389V47.5312H155.287V48.7812ZM142.943 40.3438H151.693V37.9414H153.236V45.4219H141.42V37.9414H142.943V40.3438ZM151.693 44.1719V41.5938H142.943V44.1719H151.693ZM171.088 54.6211H169.564V45.0508H165.893V43.7812H169.564V37.2188H171.088V54.6211ZM165.6 40.0898H159.037V43.7031H164.838V44.9531H159.037V49.1523C160.697 49.1523 162.09 49.1165 163.217 49.0449C164.35 48.9668 165.495 48.8268 166.654 48.625L166.83 49.8945C165.6 50.0964 164.389 50.2363 163.197 50.3145C162.006 50.3861 160.548 50.4219 158.822 50.4219H157.494V38.8203H165.6V40.0898ZM193.842 54.582H192.377V37.2188H193.842V54.582ZM190.326 53.6836H188.881V44.7383H185.951V43.4883H188.881V37.6484H190.326V53.6836ZM184.096 42.1797C184.096 43.1888 184.242 44.1751 184.535 45.1387C184.828 46.0957 185.258 46.9616 185.824 47.7363C186.391 48.5046 187.064 49.1133 187.846 49.5625L186.908 50.6953C186.068 50.194 185.349 49.5007 184.75 48.6152C184.151 47.7233 183.695 46.7142 183.383 45.5879C183.064 46.8053 182.592 47.8958 181.967 48.8594C181.348 49.8229 180.613 50.5716 179.76 51.1055L178.783 49.9531C179.571 49.4844 180.255 48.8431 180.834 48.0293C181.413 47.2155 181.853 46.304 182.152 45.2949C182.458 44.2793 182.611 43.2409 182.611 42.1797V40.5391H179.271V39.2695H187.279V40.5391H184.096V42.1797ZM209.721 44.2891H212.533V45.5781H209.721V54.582H208.197V37.2188H209.721V44.2891ZM205.229 39.0938C205.229 41.6784 204.581 44.0221 203.285 46.125C201.99 48.2214 199.981 49.9401 197.26 51.2812L196.4 50.0703C198.633 48.957 200.362 47.5833 201.586 45.9492C202.81 44.3086 203.51 42.4531 203.686 40.3828H197.201V39.0938H205.229ZM219.115 68.4883C220.02 68.4883 220.824 68.6608 221.527 69.0059C222.237 69.3509 222.79 69.8327 223.188 70.4512C223.585 71.0697 223.783 71.776 223.783 72.5703C223.783 73.3646 223.585 74.071 223.188 74.6895C222.79 75.3079 222.237 75.7897 221.527 76.1348C220.824 76.4798 220.02 76.6523 219.115 76.6523C218.21 76.6523 217.4 76.4798 216.684 76.1348C215.974 75.7897 215.417 75.3079 215.014 74.6895C214.617 74.071 214.421 73.3646 214.428 72.5703C214.421 71.776 214.617 71.0697 215.014 70.4512C215.417 69.8327 215.974 69.3509 216.684 69.0059C217.4 68.6608 218.21 68.4883 219.115 68.4883ZM219.115 69.8359C218.503 69.8359 217.953 69.9531 217.465 70.1875C216.983 70.4154 216.605 70.7376 216.332 71.1543C216.059 71.5645 215.925 72.0365 215.932 72.5703C215.925 73.1042 216.059 73.5794 216.332 73.9961C216.605 74.4062 216.983 74.7285 217.465 74.9629C217.953 75.1908 218.503 75.3047 219.115 75.3047C219.721 75.3047 220.264 75.1908 220.746 74.9629C221.228 74.7285 221.602 74.4062 221.869 73.9961C222.143 73.5794 222.279 73.1042 222.279 72.5703C222.279 72.0365 222.143 71.5645 221.869 71.1543C221.602 70.7376 221.228 70.4154 220.746 70.1875C220.264 69.9531 219.721 69.8359 219.115 69.8359ZM227.67 84.6211H226.146V67.2188H227.67V84.6211ZM213.529 79.4844C215.782 79.4844 217.829 79.4486 219.672 79.377C221.521 79.3053 223.295 79.1458 224.994 78.8984L225.111 80.0312C223.367 80.3568 221.586 80.5651 219.77 80.6562C217.96 80.7474 215.951 80.793 213.744 80.793L213.529 79.4844ZM71.4395 100.09C71.4395 100.832 71.6315 101.542 72.0156 102.219C72.3997 102.896 72.9303 103.488 73.6074 103.996C74.2845 104.504 75.0527 104.888 75.9121 105.148L75.1309 106.359C74.1152 106.034 73.2168 105.539 72.4355 104.875C71.6608 104.204 71.0749 103.423 70.6777 102.531C70.3001 103.482 69.7207 104.318 68.9395 105.041C68.1582 105.757 67.2467 106.294 66.2051 106.652L65.4043 105.441C66.2702 105.168 67.0417 104.761 67.7188 104.221C68.4023 103.68 68.9362 103.052 69.3203 102.336C69.7044 101.62 69.8965 100.871 69.8965 100.09V99.6406H65.834V98.3906H75.4434V99.6406H71.4395V100.09ZM79.5254 106.613H78.002V97.2188H79.5254V106.613ZM69.7988 109.582H78.002V107.473H79.5254V114.348H68.2754V107.473H69.7988V109.582ZM78.002 113.098V110.812H69.7988V113.098H78.002ZM96.0488 102.512H98.666V103.801H96.0488V110.031H94.5254V97.2188H96.0488V102.512ZM96.8496 114.211H85.1895V108.703H86.6934V112.922H96.8496V114.211ZM87.3574 98.4492C88.2168 98.4492 88.9915 98.6315 89.6816 98.9961C90.3783 99.3607 90.9251 99.8685 91.3223 100.52C91.7194 101.164 91.9212 101.9 91.9277 102.727C91.9212 103.553 91.7194 104.292 91.3223 104.943C90.9251 105.588 90.3783 106.092 89.6816 106.457C88.9915 106.822 88.2168 107.004 87.3574 107.004C86.498 107.004 85.7201 106.822 85.0234 106.457C84.3333 106.092 83.7897 105.588 83.3926 104.943C82.9954 104.292 82.8001 103.553 82.8066 102.727C82.8001 101.9 82.9954 101.164 83.3926 100.52C83.7897 99.8685 84.3333 99.3607 85.0234 98.9961C85.7201 98.6315 86.498 98.4492 87.3574 98.4492ZM87.3574 99.7969C86.791 99.7969 86.2734 99.9238 85.8047 100.178C85.3359 100.425 84.9681 100.773 84.7012 101.223C84.4342 101.665 84.304 102.167 84.3105 102.727C84.304 103.286 84.4342 103.791 84.7012 104.24C84.9681 104.683 85.3359 105.031 85.8047 105.285C86.2734 105.533 86.791 105.656 87.3574 105.656C87.9368 105.656 88.4577 105.533 88.9199 105.285C89.3887 105.031 89.7565 104.683 90.0234 104.24C90.2904 103.798 90.4238 103.293 90.4238 102.727C90.4238 102.16 90.2904 101.656 90.0234 101.213C89.7565 100.77 89.3887 100.425 88.9199 100.178C88.4577 99.9238 87.9368 99.7969 87.3574 99.7969ZM104.682 97.8633C105.541 97.8698 106.309 98.0358 106.986 98.3613C107.67 98.6868 108.204 99.1426 108.588 99.7285C108.979 100.308 109.174 100.969 109.174 101.711C109.174 102.453 108.979 103.117 108.588 103.703C108.204 104.283 107.67 104.735 106.986 105.061C106.309 105.38 105.541 105.539 104.682 105.539C103.809 105.539 103.031 105.38 102.348 105.061C101.664 104.735 101.13 104.283 100.746 103.703C100.362 103.117 100.17 102.453 100.17 101.711C100.17 100.969 100.362 100.308 100.746 99.7285C101.13 99.1426 101.664 98.6868 102.348 98.3613C103.031 98.0358 103.809 97.8698 104.682 97.8633ZM104.682 99.1523C104.109 99.1523 103.591 99.263 103.129 99.4844C102.673 99.6992 102.315 100.002 102.055 100.393C101.794 100.777 101.667 101.216 101.674 101.711C101.667 102.212 101.794 102.658 102.055 103.049C102.315 103.439 102.673 103.745 103.129 103.967C103.591 104.182 104.109 104.289 104.682 104.289C105.248 104.289 105.759 104.182 106.215 103.967C106.677 103.745 107.038 103.439 107.299 103.049C107.559 102.658 107.689 102.212 107.689 101.711C107.689 101.216 107.559 100.777 107.299 100.393C107.038 100.002 106.677 99.6992 106.215 99.4844C105.759 99.263 105.248 99.1523 104.682 99.1523ZM114.096 106.145H112.572V97.2188H114.096V106.145ZM114.096 111.164H104.35V113.117H114.721V114.348H102.846V110.012H112.572V108.215H102.807V106.984H114.096V111.164ZM137.943 107.668H130.873V111.066H129.35V107.668H122.045V106.418H137.943V107.668ZM136.166 114.211H124.076V109.465H125.6V112.922H136.166V114.211ZM125.697 100.012H134.291V97.7852H135.814V104.719H124.174V97.7852H125.697V100.012ZM134.291 103.469V101.184H125.697V103.469H134.291ZM141.459 103.117H145.229V98.8789H146.654V110.246H139.994V98.8789H141.459V103.117ZM145.229 108.977V104.367H141.459V108.977H145.229ZM154.232 114.582H152.748V105.383H150.326V113.703H148.861V97.5898H150.326V104.113H152.748V97.2188H154.232V114.582ZM172.514 106.496H156.615V105.285H172.514V106.496ZM170.521 111.574H160.092V113.234H171.088V114.348H158.549V110.52H168.998V109.035H158.529V107.883H170.521V111.574ZM170.463 101.34H160.209V102.863H170.775V103.977H158.686V100.285H168.92V98.8594H158.627V97.7461H170.463V101.34ZM192.963 106.613H187.592V111.105H194.838V112.395H178.939V111.105H186.088V106.613H180.971V98.6445H192.787V99.8945H182.514V105.363H192.963V106.613ZM204.135 97.4336C205.424 97.4336 206.527 97.5508 207.445 97.7852C208.363 98.0195 209.063 98.3613 209.545 98.8105C210.027 99.2598 210.268 99.8034 210.268 100.441C210.268 101.086 210.027 101.633 209.545 102.082C209.063 102.531 208.363 102.873 207.445 103.107C206.527 103.342 205.424 103.462 204.135 103.469C202.846 103.462 201.739 103.342 200.814 103.107C199.896 102.873 199.193 102.531 198.705 102.082C198.223 101.633 197.982 101.086 197.982 100.441C197.982 99.8034 198.223 99.2598 198.705 98.8105C199.193 98.3613 199.896 98.0195 200.814 97.7852C201.739 97.5508 202.846 97.4336 204.135 97.4336ZM204.135 98.6055C202.683 98.6185 201.56 98.7845 200.766 99.1035C199.971 99.4225 199.577 99.8685 199.584 100.441C199.577 101.034 199.968 101.49 200.756 101.809C201.55 102.121 202.676 102.284 204.135 102.297C205.587 102.284 206.71 102.121 207.504 101.809C208.305 101.49 208.705 101.034 208.705 100.441C208.705 99.8685 208.301 99.4225 207.494 99.1035C206.693 98.7845 205.574 98.6185 204.135 98.6055ZM212.045 105.852H204.877V107.492H210.014V111.379H199.701V113.176H210.541V114.387H198.178V110.246H208.51V108.664H198.139V107.492H203.354V105.852H196.225V104.621H212.045V105.852ZM228.373 114.582H226.908V97.2188H228.373V114.582ZM224.721 113.703H223.256V105.598H219.574C218.467 107.72 216.752 109.465 214.428 110.832L213.529 109.719C215.385 108.625 216.804 107.316 217.787 105.793C218.777 104.263 219.343 102.57 219.486 100.715H214.271V99.4453H221.01C220.997 101.216 220.707 102.85 220.141 104.348H223.256V97.6875H224.721V113.703ZM246.693 112.355H230.795V111.066H234.74V106.379C233.985 105.988 233.399 105.487 232.982 104.875C232.566 104.257 232.357 103.56 232.357 102.785C232.357 101.9 232.628 101.122 233.168 100.451C233.708 99.7741 234.457 99.25 235.414 98.8789C236.378 98.5078 237.475 98.319 238.705 98.3125C239.936 98.319 241.029 98.5078 241.986 98.8789C242.95 99.25 243.702 99.7741 244.242 100.451C244.783 101.122 245.053 101.9 245.053 102.785C245.053 103.547 244.851 104.234 244.447 104.846C244.044 105.451 243.477 105.949 242.748 106.34V111.066H246.693V112.355ZM238.705 99.582C237.761 99.5755 236.921 99.7057 236.186 99.9727C235.45 100.24 234.874 100.617 234.457 101.105C234.047 101.587 233.842 102.147 233.842 102.785C233.842 103.423 234.047 103.99 234.457 104.484C234.874 104.973 235.45 105.354 236.186 105.627C236.921 105.894 237.761 106.027 238.705 106.027C239.643 106.027 240.479 105.891 241.215 105.617C241.951 105.344 242.527 104.963 242.943 104.475C243.36 103.986 243.568 103.423 243.568 102.785C243.568 102.147 243.36 101.587 242.943 101.105C242.527 100.617 241.951 100.24 241.215 99.9727C240.479 99.7057 239.643 99.5755 238.705 99.582ZM241.205 111.066V106.936C240.43 107.137 239.597 107.238 238.705 107.238C237.807 107.238 236.986 107.141 236.244 106.945V111.066H241.205ZM250.756 109.016H249.115L248.979 98.8594H250.893L250.756 109.016ZM249.936 113.117C249.708 113.117 249.496 113.062 249.301 112.951C249.112 112.834 248.959 112.678 248.842 112.482C248.731 112.287 248.679 112.076 248.686 111.848C248.679 111.626 248.731 111.421 248.842 111.232C248.959 111.037 249.112 110.884 249.301 110.773C249.496 110.656 249.708 110.598 249.936 110.598C250.157 110.598 250.362 110.656 250.551 110.773C250.746 110.884 250.899 111.037 251.01 111.232C251.127 111.421 251.186 111.626 251.186 111.848C251.186 112.076 251.127 112.287 251.01 112.482C250.899 112.678 250.746 112.834 250.551 112.951C250.362 113.062 250.157 113.117 249.936 113.117Z" fill="black"/>
<path d="M102.357 77.9219H100.189V72.9805H97.1816V71.2422H100.189V67.1016H102.357V77.9219ZM102.357 84.7578H100.189V80.5195H90.2871V78.8203H102.357V84.7578ZM96.2051 73.4102H90.4434V75.4414H90.9121C92.2728 75.4414 93.4577 75.4121 94.4668 75.3535C95.4824 75.2884 96.5111 75.168 97.5527 74.9922L97.709 76.7891C96.498 76.9714 95.3001 77.0918 94.1152 77.1504C92.9303 77.209 91.4525 77.2383 89.6816 77.2383H88.2949V71.75H94.0762V69.875H88.2559V68.1367H96.2051V73.4102ZM114.428 68.8203C114.421 70.7474 114.18 72.4954 113.705 74.0645C113.23 75.6335 112.39 77.0951 111.186 78.4492C109.988 79.7969 108.34 80.9818 106.244 82.0039L105.092 80.3242C106.589 79.5951 107.826 78.7878 108.803 77.9023C109.786 77.0104 110.551 76.0273 111.098 74.9531L105.482 75.4609L105.209 73.6055L111.791 73.1953C112.019 72.4206 112.175 71.5482 112.26 70.5781H106.107V68.8203H114.428ZM119.604 84.7383H117.416V67.082H119.604V84.7383ZM136.83 84.7578H134.643V67.082H136.83V84.7578ZM125.248 72.9414H129.525V68.5273H131.674V80.5977H123.08V68.5273H125.248V72.9414ZM129.525 78.8203V74.6406H125.248V78.8203H129.525ZM148.998 68.8203C148.992 70.7474 148.751 72.4954 148.275 74.0645C147.8 75.6335 146.96 77.0951 145.756 78.4492C144.558 79.7969 142.911 80.9818 140.814 82.0039L139.662 80.3242C141.16 79.5951 142.396 78.7878 143.373 77.9023C144.356 77.0104 145.121 76.0273 145.668 74.9531L140.053 75.4609L139.779 73.6055L146.361 73.1953C146.589 72.4206 146.745 71.5482 146.83 70.5781H140.678V68.8203H148.998ZM154.174 84.7383H151.986V67.082H154.174V84.7383ZM175.287 74.1133H178.002V75.9102H175.287V84.7383H173.139V67.082H175.287V74.1133ZM171.771 71.5352H161.361V69.7969H165.541V67.3359H167.709V69.7969H171.771V71.5352ZM166.635 72.6875C167.475 72.6875 168.23 72.8665 168.9 73.2246C169.577 73.5762 170.108 74.0677 170.492 74.6992C170.876 75.3307 171.068 76.0469 171.068 76.8477C171.068 77.6484 170.876 78.3646 170.492 78.9961C170.108 79.6211 169.577 80.1094 168.9 80.4609C168.23 80.8125 167.475 80.9883 166.635 80.9883C165.782 80.9883 165.017 80.8125 164.34 80.4609C163.663 80.1094 163.132 79.6211 162.748 78.9961C162.364 78.3646 162.175 77.6484 162.182 76.8477C162.175 76.0469 162.364 75.3307 162.748 74.6992C163.132 74.0677 163.663 73.5762 164.34 73.2246C165.017 72.8665 165.782 72.6875 166.635 72.6875ZM166.635 74.4648C166.173 74.4648 165.759 74.5625 165.395 74.7578C165.036 74.9531 164.757 75.2331 164.555 75.5977C164.353 75.9557 164.252 76.3724 164.252 76.8477C164.252 77.3229 164.353 77.7396 164.555 78.0977C164.757 78.4492 165.036 78.7227 165.395 78.918C165.759 79.1068 166.173 79.1979 166.635 79.1914C167.084 79.1979 167.484 79.1068 167.836 78.918C168.194 78.7227 168.474 78.4492 168.676 78.0977C168.884 77.7396 168.992 77.3229 168.998 76.8477C168.992 76.3724 168.884 75.9557 168.676 75.5977C168.474 75.2396 168.194 74.9629 167.836 74.7676C167.484 74.5658 167.084 74.4648 166.635 74.4648ZM194.857 78.8203H187.826V84.7383H185.678V78.8203H178.725V77.0234H194.857V78.8203ZM186.752 67.707C187.995 67.7135 189.099 67.8796 190.062 68.2051C191.026 68.5306 191.775 68.9928 192.309 69.5918C192.849 70.1842 193.119 70.8776 193.119 71.6719C193.119 72.4596 192.849 73.1497 192.309 73.7422C191.775 74.3281 191.026 74.7806 190.062 75.0996C189.099 75.4186 187.995 75.5781 186.752 75.5781C185.502 75.5781 184.395 75.4186 183.432 75.0996C182.475 74.7806 181.732 74.3281 181.205 73.7422C180.678 73.1497 180.417 72.4596 180.424 71.6719C180.417 70.8776 180.678 70.1842 181.205 69.5918C181.732 68.9928 182.475 68.5306 183.432 68.2051C184.395 67.8796 185.502 67.7135 186.752 67.707ZM186.752 69.4648C185.919 69.4648 185.193 69.5527 184.574 69.7285C183.956 69.9043 183.477 70.1582 183.139 70.4902C182.807 70.8223 182.644 71.2161 182.65 71.6719C182.644 72.1211 182.807 72.5117 183.139 72.8438C183.477 73.1693 183.956 73.4199 184.574 73.5957C185.193 73.7715 185.919 73.8594 186.752 73.8594C187.585 73.8594 188.311 73.7715 188.93 73.5957C189.548 73.4199 190.027 73.1693 190.365 72.8438C190.704 72.5117 190.873 72.1211 190.873 71.6719C190.873 71.2161 190.704 70.8223 190.365 70.4902C190.027 70.1582 189.548 69.9043 188.93 69.7285C188.311 69.5527 187.585 69.4648 186.752 69.4648ZM205.15 69.5039C205.15 70.4089 205.424 71.291 205.971 72.1504C206.524 73.0098 207.286 73.752 208.256 74.377C209.226 74.9954 210.313 75.4089 211.518 75.6172L210.541 77.4336C209.063 77.1211 207.748 76.5449 206.596 75.7051C205.45 74.8587 204.59 73.8398 204.018 72.6484C203.432 73.8333 202.562 74.849 201.41 75.6953C200.258 76.5352 198.946 77.1146 197.475 77.4336L196.518 75.6172C197.709 75.4023 198.783 74.9857 199.74 74.3672C200.704 73.7422 201.459 73 202.006 72.1406C202.559 71.2812 202.839 70.4023 202.846 69.5039V68.1953H205.15V69.5039ZM212.162 82.4922H196.029V80.6953H212.162V82.4922Z" fill="#AA91E8"/>
<path d="M154.042 169.653L138.929 141.356C137.15 138.025 139.563 134 143.339 134H173.244C177.001 134 179.416 137.987 177.676 141.316L162.884 169.614C161.022 173.174 155.935 173.197 154.042 169.653Z" fill="white"/>
</g>
<defs>
<filter id="filter0_d_263_2298" x="0" y="0" width="316" height="179.298" filterUnits="userSpaceOnUse" color-interpolation-filters="sRGB">
<feFlood flood-opacity="0" result="BackgroundImageFix"/>
<feColorMatrix in="SourceAlpha" type="matrix" values="0 0 0 0 0 0 0 0 0 0 0 0 0 0 0 0 0 0 127 0" result="hardAlpha"/>
<feOffset/>
<feGaussianBlur stdDeviation="3.5"/>
<feComposite in2="hardAlpha" operator="out"/>
<feColorMatrix type="matrix" values="0 0 0 0 0 0 0 0 0 0 0 0 0 0 0 0 0 0 0.05 0"/>
<feBlend mode="normal" in2="BackgroundImageFix" result="effect1_dropShadow_263_2298"/>
<feBlend mode="normal" in="SourceGraphic" in2="effect1_dropShadow_263_2298" result="shape"/>
</filter>
</defs>
</svg>
