<svg width="25" height="25" viewBox="0 0 25 25" fill="none" xmlns="http://www.w3.org/2000/svg">
<path d="M21.875 6.22909C18.4062 5.88534 14.9167 5.70825 11.4375 5.70825C9.375 5.70825 7.3125 5.81242 5.25 6.02075L3.125 6.22909" stroke="white" stroke-width="1.875" stroke-linecap="round" stroke-linejoin="round"/>
<path d="M8.854 5.17712L9.08317 3.81254C9.24984 2.82296 9.37484 2.08337 11.1353 2.08337H13.8644C15.6248 2.08337 15.7603 2.86462 15.9165 3.82296L16.1457 5.17712" stroke="white" stroke-width="1.875" stroke-linecap="round" stroke-linejoin="round"/>
<path d="M19.6356 9.52087L18.9585 20.0105C18.8439 21.6459 18.7502 22.9167 15.8439 22.9167H9.15641C6.25016 22.9167 6.15641 21.6459 6.04183 20.0105L5.36475 9.52087" stroke="white" stroke-width="1.875" stroke-linecap="round" stroke-linejoin="round"/>
<path d="M10.7607 17.1875H14.2295" stroke="white" stroke-width="1.875" stroke-linecap="round" stroke-linejoin="round"/>
<path d="M9.896 13.0209H15.1043" stroke="white" stroke-width="1.875" stroke-linecap="round" stroke-linejoin="round"/>
</svg>
