<svg xmlns="http://www.w3.org/2000/svg" width="38" height="39" viewBox="0 0 38 39" fill="none">
  <path opacity="0.4" d="M34.0417 14.2343V26.0301C34.0417 26.2676 33.9625 26.5051 33.7567 26.7109C31.4608 29.0226 27.3758 33.1393 25.0325 35.4984C24.8267 35.7201 24.5575 35.8151 24.2883 35.8151H11.6692C7.41001 35.8151 3.95834 32.3634 3.95834 28.1043V14.2343C3.95834 9.9751 7.41001 6.52344 11.6692 6.52344H26.3308C30.59 6.52344 34.0417 9.9751 34.0417 14.2343Z" fill="#B9BEC9"/>
  <path d="M13.1258 10.9409C12.4608 10.9409 11.9383 10.4026 11.9383 9.75344V5.33594C11.9383 4.68677 12.4608 4.14844 13.1258 4.14844C13.7908 4.14844 14.3133 4.68677 14.3133 5.33594V9.7376C14.3133 10.4026 13.7908 10.9409 13.1258 10.9409Z" fill="#B9BEC9"/>
  <path d="M24.8742 10.9409C24.2092 10.9409 23.6867 10.4026 23.6867 9.75344V5.33594C23.6867 4.67094 24.225 4.14844 24.8742 4.14844C25.5392 4.14844 26.0617 4.68677 26.0617 5.33594V9.7376C26.0617 10.4026 25.5392 10.9409 24.8742 10.9409Z" fill="#B9BEC9"/>
  <path d="M23.4017 21.1055H11.6533C10.9883 21.1055 10.4658 20.5671 10.4658 19.918C10.4658 19.2688 11.0042 18.7305 11.6533 18.7305H23.4017C24.0667 18.7305 24.5892 19.2688 24.5892 19.918C24.5892 20.5671 24.0667 21.1055 23.4017 21.1055Z" fill="#B9BEC9"/>
  <path d="M19 26.9795H11.6533C10.9883 26.9795 10.4658 26.4412 10.4658 25.792C10.4658 25.127 11.0042 24.6045 11.6533 24.6045H19C19.665 24.6045 20.1875 25.1428 20.1875 25.792C20.1875 26.4412 19.665 26.9795 19 26.9795Z" fill="#B9BEC9"/>
  <path d="M34.0417 26.0299C34.0417 26.2674 33.9625 26.5049 33.7567 26.7108C31.4608 29.0224 27.3758 33.1391 25.0325 35.4983C24.8267 35.7199 24.5575 35.8149 24.2883 35.8149C23.7658 35.8149 23.2592 35.4033 23.2592 34.8016V29.2599C23.2592 26.9483 25.2225 25.0324 27.6292 25.0324C29.1333 25.0166 31.2233 25.0166 33.0125 25.0166C33.63 25.0166 34.0417 25.5074 34.0417 26.0299Z" fill="#B9BEC9"/>
</svg>