<svg xmlns="http://www.w3.org/2000/svg" width="38" height="39" viewBox="0 0 38 39" fill="none">
  <path opacity="0.4" d="M31.73 11.7795L22.61 5.39862C20.1242 3.65696 16.3083 3.75196 13.9175 5.60446L5.98502 11.7953C4.40168 13.0303 3.15085 15.5636 3.15085 17.5586V28.4836C3.15085 32.5211 6.42835 35.8145 10.4658 35.8145H27.5342C31.5717 35.8145 34.8492 32.537 34.8492 28.4995V17.7645C34.8492 15.627 33.4717 12.9986 31.73 11.7795Z" fill="#B9BEC9"/>
  <path d="M19 30.6689C18.3508 30.6689 17.8125 30.1306 17.8125 29.4814V24.7314C17.8125 24.0823 18.3508 23.5439 19 23.5439C19.6492 23.5439 20.1875 24.0823 20.1875 24.7314V29.4814C20.1875 30.1306 19.6492 30.6689 19 30.6689Z" fill="#B9BEC9"/>
</svg>