<svg xmlns="http://www.w3.org/2000/svg" width="38" height="39" viewBox="0 0 38 39" fill="none">
  <path opacity="0.4" d="M3.16278 21.3504V18.5672C3.16278 16.9225 4.50696 15.5625 6.16742 15.5625C9.02973 15.5625 10.2 13.5384 8.76089 11.0556C7.93857 9.63233 8.4288 7.7821 9.86787 6.95978L12.6037 5.39421C13.853 4.65096 15.466 5.09374 16.2092 6.34304L16.3832 6.6435C17.8064 9.12628 20.1469 9.12628 21.586 6.6435L21.7599 6.34304C22.5032 5.09374 24.1162 4.65096 25.3655 5.39421L28.1013 6.95978C29.5403 7.7821 30.0306 9.63233 29.2082 11.0556C27.7692 13.5384 28.9394 15.5625 31.8017 15.5625C33.4464 15.5625 34.8064 16.9067 34.8064 18.5672V21.3504C34.8064 22.9951 33.4622 24.3551 31.8017 24.3551C28.9394 24.3551 27.7692 26.3792 29.2082 28.862C30.0306 30.3011 29.5403 32.1355 28.1013 32.9578L25.3655 34.5234C24.1162 35.2666 22.5032 34.8238 21.7599 33.5745L21.586 33.2741C20.1627 30.7913 17.8222 30.7913 16.3832 33.2741L16.2092 33.5745C15.466 34.8238 13.853 35.2666 12.6037 34.5234L9.86787 32.9578C8.4288 32.1355 7.93857 30.2853 8.76089 28.862C10.2 26.3792 9.02973 24.3551 6.16742 24.3551C4.50696 24.3551 3.16278 22.9951 3.16278 21.3504Z" fill="#B9BEC9"/>
  <path d="M18.9767 25.0974C21.8151 25.0974 24.1162 22.7963 24.1162 19.9579C24.1162 17.1194 21.8151 14.8184 18.9767 14.8184C16.1382 14.8184 13.8372 17.1194 13.8372 19.9579C13.8372 22.7963 16.1382 25.0974 18.9767 25.0974Z" fill="#B9BEC9"/>
</svg>